<svg xmlns="http://www.w3.org/2000/svg" xmlns:xlink="http://www.w3.org/1999/xlink" height="1005" viewBox="0 0 61 1005" width="61"><svg height="52" viewBox="0 0 53 52" width="53" x="4" y="4"><g id="Events" stroke="none" stroke-width="1" fill="none" fill-rule="evenodd"><g id="Assets" transform="translate(-44 -609)"><g id="Elements-/-Richdata-/-Music-controls" transform="translate(44 537)"><g id="Prev" transform="translate(0 72)"><rect id="Rectangle-5" fill-opacity=".4" fill="#D8D8D8" x="0" y="0" width="53" height="52" rx="26"/><path d="M11.6517648,24.0134117 L21.6620705,15.0041365 C22.4830906,14.2652185 23.7476703,14.3317753 24.4865883,15.1527953 C24.8171128,15.5200448 25,15.9966413 25,16.4907248 L25,34.5092752 C25,35.6138447 24.1045695,36.5092752 23,36.5092752 C22.5059164,36.5092752 22.02932,36.326388 21.6620705,35.9958635 L11.6517648,26.9865883 C10.8307447,26.2476703 10.7641879,24.9830906 11.5031059,24.1620705 C11.5500184,24.1099456 11.5996398,24.0603241 11.6517648,24.0134117 Z" id="Path-2" fill="#8C8B8B"/><path d="M24.6517648,24.0134117 L34.6620705,15.0041365 C35.4830906,14.2652185 36.7476703,14.3317753 37.4865883,15.1527953 C37.8171128,15.5200448 38,15.9966413 38,16.4907248 L38,34.5092752 C38,35.6138447 37.1045695,36.5092752 36,36.5092752 C35.5059164,36.5092752 35.02932,36.326388 34.6620705,35.9958635 L24.6517648,26.9865883 C23.8307447,26.2476703 23.7641879,24.9830906 24.5031059,24.1620705 C24.5500184,24.1099456 24.5996398,24.0603241 24.6517648,24.0134117 Z" id="Path-2" fill="#8C8B8B"/></g></g></g></g></svg><svg height="48" viewBox="0 0 48 48" width="48" x="4" y="60"><g id="Events" stroke="none" stroke-width="1" fill="none" fill-rule="evenodd"><g id="Assets" transform="translate(-246 -327)"><g id="Icon" transform="translate(244 323)"><circle id="Oval" fill-opacity="0" fill="#D8D8D8" cx="26" cy="26" r="26"/><g id="temperature" transform="translate(2 4)" fill="#333" fill-rule="nonzero"><path d="M25.1020169,17.0241145 C25.1020169,15.379012 23.7288771,14.0408163 22.0408163,14.0408163 C20.3527555,14.0408163 18.9796158,15.379012 18.9796158,17.0241145 L18.9796158,29.3253716 C18.3259538,30.0498469 17.9591837,30.9801698 17.9591837,31.9406054 C17.9591837,34.134355 19.7907382,35.9183673 22.0408163,35.9183673 C24.2908944,35.9183673 26.122449,34.1344483 26.122449,31.9406054 C26.122449,30.9801698 25.7557745,30.0498469 25.1020169,29.3253716 L25.1020169,17.0241145 Z M22.0408163,33.929533 C20.9147728,33.929533 20.0000478,33.0370607 20.0000478,31.9406986 C20.0000478,31.3793724 20.243222,30.8569223 20.6836522,30.4694665 C20.8988928,30.2810525 21.0204799,30.0130218 21.0204799,29.7313798 L21.0204799,17.0241145 C21.0204799,16.4754673 21.4788947,16.0296507 22.040912,16.0296507 C22.6029293,16.0296507 23.0613441,16.4753741 23.0613441,17.0241145 L23.0613441,29.7312866 C23.0613441,30.0129286 23.1829311,30.2809593 23.3981718,30.4693732 C23.838602,30.8568291 24.0817761,31.3792792 24.0817761,31.9406054 C24.0815848,33.0370607 23.1667642,33.929533 22.0408163,33.929533 Z" id="Shape"/><path d="M43.9999502,25.9999072 L39.9999004,25.9999072 L39.9999004,21.9998818 L43.0311332,21.9998818 C43.4393226,21.9998818 43.8085118,21.7508822 43.9588875,21.3710078 C44.111232,20.9911333 44.0174815,20.5575402 43.7205739,20.2752594 L22.6893515,0.275413659 C22.3026309,-0.091804553 21.6971906,-0.091804553 21.3104701,0.275413659 L0.310372776,20.2753531 C0.0134651499,20.5575402 -0.0802852845,20.9921646 0.0720591714,21.3711015 C0.222434868,21.750976 0.591624079,21.9999756 0.99981347,21.9999756 L3.99982737,21.9999756 L3.99982737,40.999979 C3.99982737,41.5527282 4.44711069,42.0000088 4.99986325,42.0000088 L32.2840522,42.0000088 C33.1783376,45.440535 36.282602,48 39.9999942,48 C44.4121709,48 48,44.4111615 48,40.000043 L48,29.9999326 C48,27.7939046 46.2050542,25.9999072 43.9999502,25.9999072 Z M31.9998946,29.9999326 L31.9998946,39.9999492 L5.99980539,39.9999492 L5.99980539,20.9999458 C5.99980539,20.4471966 5.55252207,19.999916 4.9997695,19.999916 L3.49976255,19.999916 L21.9999108,2.38084807 L40.5293091,20.0000098 L38.9999583,20.0000098 C38.4472057,20.0000098 37.9999224,20.4472904 37.9999224,21.0000396 L37.9999224,26.000001 L35.9999444,26.000001 C33.7948404,25.9999072 31.9998946,27.7939046 31.9998946,29.9999326 Z M46.000022,39.9999492 C46.000022,43.3085694 43.3086345,45.9999404 39.9999942,45.9999404 C36.6913539,45.9999404 33.9999664,43.3085694 33.9999664,39.9999492 L33.9999664,29.9999326 C33.9999664,28.8974342 34.8965018,27.9999668 35.9999444,27.9999668 L43.9999502,27.9999668 C45.1034866,27.9999668 45.9999282,28.8974342 45.9999282,29.9999326 L45.9999282,39.9999492 L46.000022,39.9999492 Z" id="Shape"/><path d="M41.7959184,32 L40.8163265,32 L40.8163265,31.0204082 C40.8163265,30.4789557 40.3781872,30.0408163 39.8367347,30.0408163 C39.2952822,30.0408163 38.8571429,30.4789557 38.8571429,31.0204082 L38.8571429,32 L37.877551,32 C37.3360986,32 36.8979592,32.4381394 36.8979592,32.9795918 C36.8979592,33.5210443 37.3360986,33.9591837 37.877551,33.9591837 L38.8571429,33.9591837 L38.8571429,34.9387755 C38.8571429,35.480228 39.2952822,35.9183673 39.8367347,35.9183673 C40.3781872,35.9183673 40.8163265,35.480228 40.8163265,34.9387755 L40.8163265,33.9591837 L41.7959184,33.9591837 C42.3373708,33.9591837 42.7755102,33.5210443 42.7755102,32.9795918 C42.7755102,32.4381394 42.3373708,32 41.7959184,32 Z" id="Shape"/><path d="M41.7959031,39.8367347 L37.8775663,39.8367347 C37.3361054,39.8367347 36.8979592,40.2748741 36.8979592,40.8163265 C36.8979592,41.357779 37.3361054,41.7959184 37.8775663,41.7959184 L41.7959031,41.7959184 C42.337364,41.7959184 42.7755102,41.357779 42.7755102,40.8163265 C42.7755102,40.2748741 42.337364,39.8367347 41.7959031,39.8367347 Z" id="Shape"/></g></g></g></g></svg><svg height="48" viewBox="0 0 48 48" width="48" x="4" y="112"><g id="Events" stroke="none" stroke-width="1" fill="none" fill-rule="evenodd"><g id="Assets" transform="translate(-246 -327)"><g id="Icon" transform="translate(244 323)"><circle id="Oval" fill-opacity="0" fill="#D8D8D8" cx="26" cy="26" r="26"/><g id="temperature" transform="translate(2 4)" fill="#333" fill-rule="nonzero"><path d="M25.1020169,17.0241145 C25.1020169,15.379012 23.7288771,14.0408163 22.0408163,14.0408163 C20.3527555,14.0408163 18.9796158,15.379012 18.9796158,17.0241145 L18.9796158,29.3253716 C18.3259538,30.0498469 17.9591837,30.9801698 17.9591837,31.9406054 C17.9591837,34.134355 19.7907382,35.9183673 22.0408163,35.9183673 C24.2908944,35.9183673 26.122449,34.1344483 26.122449,31.9406054 C26.122449,30.9801698 25.7557745,30.0498469 25.1020169,29.3253716 L25.1020169,17.0241145 Z M22.0408163,33.929533 C20.9147728,33.929533 20.0000478,33.0370607 20.0000478,31.9406986 C20.0000478,31.3793724 20.243222,30.8569223 20.6836522,30.4694665 C20.8988928,30.2810525 21.0204799,30.0130218 21.0204799,29.7313798 L21.0204799,17.0241145 C21.0204799,16.4754673 21.4788947,16.0296507 22.040912,16.0296507 C22.6029293,16.0296507 23.0613441,16.4753741 23.0613441,17.0241145 L23.0613441,29.7312866 C23.0613441,30.0129286 23.1829311,30.2809593 23.3981718,30.4693732 C23.838602,30.8568291 24.0817761,31.3792792 24.0817761,31.9406054 C24.0815848,33.0370607 23.1667642,33.929533 22.0408163,33.929533 Z" id="Shape"/><path d="M43.9999502,25.9999072 L39.9999004,25.9999072 L39.9999004,21.9998818 L43.0311332,21.9998818 C43.4393226,21.9998818 43.8085118,21.7508822 43.9588875,21.3710078 C44.111232,20.9911333 44.0174815,20.5575402 43.7205739,20.2752594 L22.6893515,0.275413659 C22.3026309,-0.091804553 21.6971906,-0.091804553 21.3104701,0.275413659 L0.310372776,20.2753531 C0.0134651499,20.5575402 -0.0802852845,20.9921646 0.0720591714,21.3711015 C0.222434868,21.750976 0.591624079,21.9999756 0.99981347,21.9999756 L3.99982737,21.9999756 L3.99982737,40.999979 C3.99982737,41.5527282 4.44711069,42.0000088 4.99986325,42.0000088 L32.2840522,42.0000088 C33.1783376,45.440535 36.282602,48 39.9999942,48 C44.4121709,48 48,44.4111615 48,40.000043 L48,29.9999326 C48,27.7939046 46.2050542,25.9999072 43.9999502,25.9999072 Z M31.9998946,29.9999326 L31.9998946,39.9999492 L5.99980539,39.9999492 L5.99980539,20.9999458 C5.99980539,20.4471966 5.55252207,19.999916 4.9997695,19.999916 L3.49976255,19.999916 L21.9999108,2.38084807 L40.5293091,20.0000098 L38.9999583,20.0000098 C38.4472057,20.0000098 37.9999224,20.4472904 37.9999224,21.0000396 L37.9999224,26.000001 L35.9999444,26.000001 C33.7948404,25.9999072 31.9998946,27.7939046 31.9998946,29.9999326 Z M46.000022,39.9999492 C46.000022,43.3085694 43.3086345,45.9999404 39.9999942,45.9999404 C36.6913539,45.9999404 33.9999664,43.3085694 33.9999664,39.9999492 L33.9999664,29.9999326 C33.9999664,28.8974342 34.8965018,27.9999668 35.9999444,27.9999668 L43.9999502,27.9999668 C45.1034866,27.9999668 45.9999282,28.8974342 45.9999282,29.9999326 L45.9999282,39.9999492 L46.000022,39.9999492 Z" id="Shape"/><path d="M41.7959184,32 L40.8163265,32 L40.8163265,31.0204082 C40.8163265,30.4789557 40.3781872,30.0408163 39.8367347,30.0408163 C39.2952822,30.0408163 38.8571429,30.4789557 38.8571429,31.0204082 L38.8571429,32 L37.877551,32 C37.3360986,32 36.8979592,32.4381394 36.8979592,32.9795918 C36.8979592,33.5210443 37.3360986,33.9591837 37.877551,33.9591837 L38.8571429,33.9591837 L38.8571429,34.9387755 C38.8571429,35.480228 39.2952822,35.9183673 39.8367347,35.9183673 C40.3781872,35.9183673 40.8163265,35.480228 40.8163265,34.9387755 L40.8163265,33.9591837 L41.7959184,33.9591837 C42.3373708,33.9591837 42.7755102,33.5210443 42.7755102,32.9795918 C42.7755102,32.4381394 42.3373708,32 41.7959184,32 Z" id="Shape"/><path d="M41.7959031,39.8367347 L37.8775663,39.8367347 C37.3361054,39.8367347 36.8979592,40.2748741 36.8979592,40.8163265 C36.8979592,41.357779 37.3361054,41.7959184 37.8775663,41.7959184 L41.7959031,41.7959184 C42.337364,41.7959184 42.7755102,41.357779 42.7755102,40.8163265 C42.7755102,40.2748741 42.337364,39.8367347 41.7959031,39.8367347 Z" id="Shape"/></g></g></g></g></svg><svg height="46" viewBox="0 0 48 46" width="48" x="4" y="164"><g id="Events" stroke="none" stroke-width="1" fill="none" fill-rule="evenodd"><g id="Assets" transform="translate(-46 -326)"><g id="Icons-/-Router" transform="translate(44 323)"><g id="Icon" fill="#D8D8D8" fill-opacity="0"><circle id="Oval" cx="26" cy="26" r="26"/></g><g id="009-wifi" transform="translate(2 3)" fill="#333" fill-rule="nonzero"><path d="M42.593402,22.4160635 L15.4021437,22.4160635 L15.4021437,10.5826838 C17.1217984,9.97090755 18.1094099,8.1660635 17.6972439,6.38794541 C17.2854955,4.60940985 15.6050946,3.42260579 13.791481,3.62931517 C11.9774498,3.83602445 10.6073218,5.37026726 10.6060691,7.19599109 C10.608157,8.8183463 11.6972439,10.2385858 13.264059,10.6611915 L13.264059,22.4160635 L6.80679287,22.4160635 C3.85648666,22.4194043 1.46492205,24.8105512 1.46158129,27.7612751 L1.46158129,38.7231347 C1.46158129,39.313196 1.94056239,39.792177 2.53062361,39.792177 L5.99624167,39.792177 L5.99624167,44.2888363 C5.99624167,44.8788976 6.47522266,45.3578786 7.06528399,45.3578786 L41.8308742,45.3578786 C42.4209354,45.3578786 42.8999165,44.8788976 42.8999165,44.2888363 L42.8999165,39.792177 L46.8691537,39.792177 C47.4596325,39.792177 47.938196,39.313196 47.938196,38.7231347 L47.938196,27.7612751 C47.9348552,24.8105512 45.5441259,22.4194043 42.593402,22.4160635 Z M12.7441537,7.19599109 C12.7441537,6.39504449 13.3935133,5.74568488 14.1944599,5.74568488 C14.9954064,5.74568488 15.6443486,6.39504449 15.6443486,7.19599109 C15.6443486,7.99693769 14.9954064,8.6462973 14.1944599,8.6462973 C13.3939309,8.6450446 12.7449889,7.99652002 12.7441537,7.19599109 Z M40.7618319,43.219794 L8.13432631,43.219794 L8.13432631,39.792177 L40.7618319,39.792177 L40.7618319,43.219794 Z M45.8005289,37.6540924 L3.59966592,37.6540924 L3.59966592,27.7612751 C3.6013363,25.9906737 5.03619154,24.5562361 6.80679287,24.5541481 L42.593402,24.5541481 C44.3635857,24.5562361 45.798441,25.9906737 45.8005289,27.7612751 L45.8005289,37.6540924 Z" id="Shape"/><path d="M10.6227729,28.0193485 C10.032294,28.0193485 9.55373057,28.4979121 9.55373057,29.0883908 L9.55373057,33.1185969 C9.55373057,33.7090757 10.032294,34.1876392 10.6227729,34.1876392 C11.2132517,34.1876392 11.6918152,33.7090757 11.6918152,33.1185969 L11.6918152,29.0883908 C11.6918152,28.4979121 11.2132517,28.0193485 10.6227729,28.0193485 Z" id="Shape"/><path d="M37.0264476,27.3390869 C35.1000835,27.3390869 33.5386971,28.9004733 33.5386971,30.8264198 C33.5386971,32.752784 35.1000835,34.3141704 37.0264476,34.3141704 C38.9097996,34.3141704 40.4415367,32.7995546 40.5129455,30.8660913 C40.5129455,30.8527282 40.5137806,30.8397829 40.5137806,30.8264198 C40.5116927,28.9013084 38.951559,27.3411748 37.0264476,27.3390869 Z M37.0264476,32.1760858 C36.2835468,32.1760858 35.6805401,31.5760023 35.6767817,30.8331014 C35.6734409,30.0902004 36.2706013,29.4842706 37.0135023,29.4771715 C37.7559855,29.4700724 38.3648386,30.0643095 38.375696,30.8072104 C38.3372773,31.5764198 37.7484688,32.1765033 37.0264476,32.1765033 L37.0264476,32.1760858 Z" id="Shape"/><path d="M16.8520323,28.0193485 C16.2619711,28.0193485 15.78299,28.4979121 15.78299,29.0883908 L15.78299,33.1185969 C15.78299,33.7090757 16.2619711,34.1876392 16.8520323,34.1876392 C17.4425111,34.1876392 17.9210746,33.7090757 17.9210746,33.1185969 L17.9210746,29.0883908 C17.9210746,28.4979121 17.4425111,28.0193485 16.8520323,28.0193485 Z" id="Shape"/><path d="M7.53257244,11.4896993 C7.96520039,11.4896993 8.35481629,11.2291202 8.52060134,10.8298998 C8.68596882,10.4302617 8.59451556,9.97048998 8.28841871,9.66439312 C6.7913419,8.15979955 6.7913419,5.72814585 8.28841871,4.22313472 C8.56528399,3.95462143 8.67636412,3.55748889 8.57822945,3.18457678 C8.48009468,2.81124722 8.18861356,2.51976609 7.81570156,2.422049 C7.44237199,2.32391423 7.04523945,2.43457689 6.77672606,2.71144207 C4.44487751,5.05122494 4.44487751,8.83672046 6.77672606,11.1765033 C6.97717149,11.3773663 7.24902564,11.490117 7.53257244,11.4896993 Z" id="Shape"/><path d="M3.44515585,13.7568207 C3.87778402,13.7568207 4.2673998,13.4962417 4.43276729,13.0970212 C4.59855234,12.6973831 4.50709908,12.2376113 4.20100223,11.931932 C1.44487751,9.17538976 1.44738302,4.65242202 4.2068485,1.84910913 C4.47953789,1.57767255 4.58518931,1.18095768 4.48413135,0.81013363 C4.38265593,0.439309577 4.09033967,0.151169212 3.71784524,0.0559577372 C3.34535081,-0.039253951 2.95030621,0.0726615234 2.6834632,0.349109131 C-0.896575751,3.98635852 -0.894070129,9.86024499 2.68930958,13.4436247 C2.88933744,13.6444877 3.16160916,13.7572383 3.44515585,13.7568207 Z" id="Shape"/></g></g></g></g></svg><svg height="46" viewBox="0 0 48 46" width="48" x="4" y="214"><g id="Events" stroke="none" stroke-width="1" fill="none" fill-rule="evenodd"><g id="Assets" transform="translate(-46 -326)"><g id="Icons-/-Router" transform="translate(44 323)"><g id="Icon" fill="#D8D8D8" fill-opacity="0"><circle id="Oval" cx="26" cy="26" r="26"/></g><g id="009-wifi" transform="translate(2 3)" fill="#333" fill-rule="nonzero"><path d="M42.593402,22.4160635 L15.4021437,22.4160635 L15.4021437,10.5826838 C17.1217984,9.97090755 18.1094099,8.1660635 17.6972439,6.38794541 C17.2854955,4.60940985 15.6050946,3.42260579 13.791481,3.62931517 C11.9774498,3.83602445 10.6073218,5.37026726 10.6060691,7.19599109 C10.608157,8.8183463 11.6972439,10.2385858 13.264059,10.6611915 L13.264059,22.4160635 L6.80679287,22.4160635 C3.85648666,22.4194043 1.46492205,24.8105512 1.46158129,27.7612751 L1.46158129,38.7231347 C1.46158129,39.313196 1.94056239,39.792177 2.53062361,39.792177 L5.99624167,39.792177 L5.99624167,44.2888363 C5.99624167,44.8788976 6.47522266,45.3578786 7.06528399,45.3578786 L41.8308742,45.3578786 C42.4209354,45.3578786 42.8999165,44.8788976 42.8999165,44.2888363 L42.8999165,39.792177 L46.8691537,39.792177 C47.4596325,39.792177 47.938196,39.313196 47.938196,38.7231347 L47.938196,27.7612751 C47.9348552,24.8105512 45.5441259,22.4194043 42.593402,22.4160635 Z M12.7441537,7.19599109 C12.7441537,6.39504449 13.3935133,5.74568488 14.1944599,5.74568488 C14.9954064,5.74568488 15.6443486,6.39504449 15.6443486,7.19599109 C15.6443486,7.99693769 14.9954064,8.6462973 14.1944599,8.6462973 C13.3939309,8.6450446 12.7449889,7.99652002 12.7441537,7.19599109 Z M40.7618319,43.219794 L8.13432631,43.219794 L8.13432631,39.792177 L40.7618319,39.792177 L40.7618319,43.219794 Z M45.8005289,37.6540924 L3.59966592,37.6540924 L3.59966592,27.7612751 C3.6013363,25.9906737 5.03619154,24.5562361 6.80679287,24.5541481 L42.593402,24.5541481 C44.3635857,24.5562361 45.798441,25.9906737 45.8005289,27.7612751 L45.8005289,37.6540924 Z" id="Shape"/><path d="M10.6227729,28.0193485 C10.032294,28.0193485 9.55373057,28.4979121 9.55373057,29.0883908 L9.55373057,33.1185969 C9.55373057,33.7090757 10.032294,34.1876392 10.6227729,34.1876392 C11.2132517,34.1876392 11.6918152,33.7090757 11.6918152,33.1185969 L11.6918152,29.0883908 C11.6918152,28.4979121 11.2132517,28.0193485 10.6227729,28.0193485 Z" id="Shape"/><path d="M37.0264476,27.3390869 C35.1000835,27.3390869 33.5386971,28.9004733 33.5386971,30.8264198 C33.5386971,32.752784 35.1000835,34.3141704 37.0264476,34.3141704 C38.9097996,34.3141704 40.4415367,32.7995546 40.5129455,30.8660913 C40.5129455,30.8527282 40.5137806,30.8397829 40.5137806,30.8264198 C40.5116927,28.9013084 38.951559,27.3411748 37.0264476,27.3390869 Z M37.0264476,32.1760858 C36.2835468,32.1760858 35.6805401,31.5760023 35.6767817,30.8331014 C35.6734409,30.0902004 36.2706013,29.4842706 37.0135023,29.4771715 C37.7559855,29.4700724 38.3648386,30.0643095 38.375696,30.8072104 C38.3372773,31.5764198 37.7484688,32.1765033 37.0264476,32.1765033 L37.0264476,32.1760858 Z" id="Shape"/><path d="M16.8520323,28.0193485 C16.2619711,28.0193485 15.78299,28.4979121 15.78299,29.0883908 L15.78299,33.1185969 C15.78299,33.7090757 16.2619711,34.1876392 16.8520323,34.1876392 C17.4425111,34.1876392 17.9210746,33.7090757 17.9210746,33.1185969 L17.9210746,29.0883908 C17.9210746,28.4979121 17.4425111,28.0193485 16.8520323,28.0193485 Z" id="Shape"/><path d="M7.53257244,11.4896993 C7.96520039,11.4896993 8.35481629,11.2291202 8.52060134,10.8298998 C8.68596882,10.4302617 8.59451556,9.97048998 8.28841871,9.66439312 C6.7913419,8.15979955 6.7913419,5.72814585 8.28841871,4.22313472 C8.56528399,3.95462143 8.67636412,3.55748889 8.57822945,3.18457678 C8.48009468,2.81124722 8.18861356,2.51976609 7.81570156,2.422049 C7.44237199,2.32391423 7.04523945,2.43457689 6.77672606,2.71144207 C4.44487751,5.05122494 4.44487751,8.83672046 6.77672606,11.1765033 C6.97717149,11.3773663 7.24902564,11.490117 7.53257244,11.4896993 Z" id="Shape"/><path d="M3.44515585,13.7568207 C3.87778402,13.7568207 4.2673998,13.4962417 4.43276729,13.0970212 C4.59855234,12.6973831 4.50709908,12.2376113 4.20100223,11.931932 C1.44487751,9.17538976 1.44738302,4.65242202 4.2068485,1.84910913 C4.47953789,1.57767255 4.58518931,1.18095768 4.48413135,0.81013363 C4.38265593,0.439309577 4.09033967,0.151169212 3.71784524,0.0559577372 C3.34535081,-0.039253951 2.95030621,0.0726615234 2.6834632,0.349109131 C-0.896575751,3.98635852 -0.894070129,9.86024499 2.68930958,13.4436247 C2.88933744,13.6444877 3.16160916,13.7572383 3.44515585,13.7568207 Z" id="Shape"/></g></g></g></g></svg><svg height="45" viewBox="0 0 48 45" width="48" x="4" y="264"><g id="Events" stroke="none" stroke-width="1" fill="none" fill-rule="evenodd"><g id="Assets" transform="translate(-246 -243)"><g id="Icon" transform="translate(244 239)"><circle id="Oval" fill-opacity="0" fill="#D8D8D8" cx="26" cy="26" r="26"/><g id="smart-home" transform="translate(2 4)" fill="#333" fill-rule="nonzero"><path d="M47.65623,20.3530662 L24.6562797,0.245927964 C24.28128,-0.0819759881 23.7187804,-0.0819759881 23.3437807,0.245927964 L0.343736634,20.3530662 C0.0292993857,20.6289428 -0.0820755251,21.0717404 0.0624868591,21.46449 C0.209017992,21.8572396 0.582048943,22.1173761 0.999986108,22.1173761 L6.0000446,22.1173761 L6.0000446,43.2299042 C6.0000446,43.7856161 6.44732549,44.2352941 7.00007505,44.2352941 L41.0000791,44.2352941 C41.5528286,44.2352941 42.0001095,43.7856161 42.0001095,43.2299042 L42.0001095,22.1173761 L47.0000742,22.1173761 C47.4180114,22.1173761 47.7911361,21.8572396 47.9375735,21.46449 C48.0820421,21.0717404 47.9706672,20.6289428 47.65623,20.3530662 Z M40.9999853,20.1066905 C40.4472357,20.1066905 39.9999549,20.5563685 39.9999549,21.1120804 L39.9999549,42.2246086 L8.00001175,42.2246086 L8.00001175,21.1120804 C8.00001175,20.5563685 7.55273086,20.1066905 6.9999813,20.1066905 L3.67382772,20.1066905 L24.0000302,2.33719928 L44.3262326,20.1066905 L40.9999853,20.1066905 Z" id="Shape"/><circle id="Oval" cx="28.235" cy="22.588" r="1.882"/><path d="M20.3293632,23.2469715 C20.3293632,24.0264484 20.4568005,24.7958313 20.7115779,25.5420172 L14.4209535,31.8326711 C14.2268374,32.0267882 14.1176471,32.2896226 14.1176471,32.5646865 L14.1176471,35.6705591 C14.1176471,36.2428162 14.5807111,36.7058824 15.1529654,36.7058824 L18.2588235,36.7058824 C18.533789,36.7058824 18.7967193,36.5966915 18.9908355,36.4025745 L25.2814598,30.1129882 C26.0276422,30.3657286 26.7959539,30.4941371 27.5764949,30.4941371 C31.5720842,30.4941371 34.8235294,27.2426766 34.8235294,23.2470685 C34.8235294,19.2514604 31.5720842,16 27.5764949,16 C23.5809055,16 20.3293632,19.2513634 20.3293632,23.2469715 Z M27.5763978,18.0704524 C30.4315549,18.0704524 32.7527956,20.3927716 32.7527956,23.2468744 C32.7527956,26.1009773 30.4314578,28.4233935 27.5763978,28.4233935 C26.8525387,28.4233935 26.1386767,28.266644 25.4552908,27.9573185 C25.0590028,27.777372 24.5979769,27.8632688 24.2966117,28.1686149 L17.8301181,34.6351388 L16.1881868,34.6351388 L16.1881868,32.9931998 L22.6546804,26.5266759 C22.960025,26.2223975 23.0429126,25.7613695 22.8670434,25.369059 C22.5576223,24.6835346 22.3999029,23.9687957 22.3999029,23.2468744 C22.3999029,20.3928686 24.7212407,18.0704524 27.5763978,18.0704524 Z" id="Shape"/></g></g></g></g></svg><svg height="45" viewBox="0 0 48 45" width="48" x="4" y="313"><g id="Events" stroke="none" stroke-width="1" fill="none" fill-rule="evenodd"><g id="Assets" transform="translate(-246 -243)"><g id="Icon" transform="translate(244 239)"><circle id="Oval" fill-opacity="0" fill="#D8D8D8" cx="26" cy="26" r="26"/><g id="smart-home" transform="translate(2 4)" fill="#333" fill-rule="nonzero"><path d="M47.65623,20.3530662 L24.6562797,0.245927964 C24.28128,-0.0819759881 23.7187804,-0.0819759881 23.3437807,0.245927964 L0.343736634,20.3530662 C0.0292993857,20.6289428 -0.0820755251,21.0717404 0.0624868591,21.46449 C0.209017992,21.8572396 0.582048943,22.1173761 0.999986108,22.1173761 L6.0000446,22.1173761 L6.0000446,43.2299042 C6.0000446,43.7856161 6.44732549,44.2352941 7.00007505,44.2352941 L41.0000791,44.2352941 C41.5528286,44.2352941 42.0001095,43.7856161 42.0001095,43.2299042 L42.0001095,22.1173761 L47.0000742,22.1173761 C47.4180114,22.1173761 47.7911361,21.8572396 47.9375735,21.46449 C48.0820421,21.0717404 47.9706672,20.6289428 47.65623,20.3530662 Z M40.9999853,20.1066905 C40.4472357,20.1066905 39.9999549,20.5563685 39.9999549,21.1120804 L39.9999549,42.2246086 L8.00001175,42.2246086 L8.00001175,21.1120804 C8.00001175,20.5563685 7.55273086,20.1066905 6.9999813,20.1066905 L3.67382772,20.1066905 L24.0000302,2.33719928 L44.3262326,20.1066905 L40.9999853,20.1066905 Z" id="Shape"/><circle id="Oval" cx="28.235" cy="22.588" r="1.882"/><path d="M20.3293632,23.2469715 C20.3293632,24.0264484 20.4568005,24.7958313 20.7115779,25.5420172 L14.4209535,31.8326711 C14.2268374,32.0267882 14.1176471,32.2896226 14.1176471,32.5646865 L14.1176471,35.6705591 C14.1176471,36.2428162 14.5807111,36.7058824 15.1529654,36.7058824 L18.2588235,36.7058824 C18.533789,36.7058824 18.7967193,36.5966915 18.9908355,36.4025745 L25.2814598,30.1129882 C26.0276422,30.3657286 26.7959539,30.4941371 27.5764949,30.4941371 C31.5720842,30.4941371 34.8235294,27.2426766 34.8235294,23.2470685 C34.8235294,19.2514604 31.5720842,16 27.5764949,16 C23.5809055,16 20.3293632,19.2513634 20.3293632,23.2469715 Z M27.5763978,18.0704524 C30.4315549,18.0704524 32.7527956,20.3927716 32.7527956,23.2468744 C32.7527956,26.1009773 30.4314578,28.4233935 27.5763978,28.4233935 C26.8525387,28.4233935 26.1386767,28.266644 25.4552908,27.9573185 C25.0590028,27.777372 24.5979769,27.8632688 24.2966117,28.1686149 L17.8301181,34.6351388 L16.1881868,34.6351388 L16.1881868,32.9931998 L22.6546804,26.5266759 C22.960025,26.2223975 23.0429126,25.7613695 22.8670434,25.369059 C22.5576223,24.6835346 22.3999029,23.9687957 22.3999029,23.2468744 C22.3999029,20.3928686 24.7212407,18.0704524 27.5763978,18.0704524 Z" id="Shape"/></g></g></g></g></svg><svg height="48" viewBox="0 0 41 48" width="41" x="4" y="362"><g id="Events" stroke="none" stroke-width="1" fill="none" fill-rule="evenodd"><g id="Assets" transform="translate(-350 -325)"><g id="Icons-/-Teapot" transform="translate(344 323)"><g id="Icon" fill="#D8D8D8" fill-opacity="0"><circle id="Oval" cx="26" cy="26" r="26"/></g><g id="hot-kettle" transform="translate(6 2)" fill="#333" fill-rule="nonzero"><path d="M10.901888,5.038464 C11.693696,4.05056 12.003328,2.51648 11.655168,1.307776 C11.498624,0.764288 11.812352,0.196864 12.355712,0.04032 C12.8992,-0.116224 13.466624,0.197376 13.623168,0.740864 C14.152704,2.578688 13.701248,4.82048 12.499968,6.31936 C11.405696,7.684608 11.121024,10.087424 12.377728,11.259904 C12.791168,11.645696 12.813696,12.293632 12.428032,12.7072 C12.226432,12.923392 11.953024,13.032704 11.678976,13.032704 C11.428864,13.032704 11.178112,12.941568 10.980736,12.757504 C8.835968,10.756736 9.208448,7.150976 10.901888,5.038464 Z M17.633024,6.227456 L24.367616,6.227456 C24.93312,6.227456 25.391616,5.76896 25.391616,5.203456 C25.391616,4.637952 24.93312,4.179456 24.367616,4.179456 L17.633024,4.179456 C17.06752,4.179456 16.609024,4.637952 16.609024,5.203456 C16.609024,5.76896 17.06752,6.227456 17.633024,6.227456 Z M40.467328,16.030976 L40.467328,24.22848 C40.467328,28.32256 37.396352,31.713024 33.437184,32.217856 L33.437184,41.363328 L34.459008,41.363328 C35.024512,41.363328 35.483008,41.821824 35.483008,42.387328 L35.483008,46.935552 C35.483008,47.501056 35.024512,47.959552 34.459008,47.959552 L1.092096,47.959552 C0.526592,47.959552 0.068096,47.501056 0.068096,46.935552 L0.068096,42.3872 C0.068096,41.821696 0.526592,41.3632 1.092096,41.3632 L1.942656,41.3632 C1.540224,32.53248 2.409344,22.609536 5.901824,19.31456 L0.264704,11.586176 C0.13696,11.410944 0.068096,11.199616 0.068096,10.982784 L0.068096,9.000832 C0.068096,8.729216 0.176,8.468736 0.368,8.276736 C0.560128,8.084736 0.82048,7.976832 1.092096,7.976832 L5.330944,7.97696 C5.517056,6.89472 5.969152,5.85856 6.62656,5.038464 C7.418368,4.05056 7.728,2.51648 7.379584,1.307904 C7.222912,0.764544 7.53664,0.196992 8.08,0.04032 C8.623488,-0.116352 9.19104,0.197248 9.347456,0.740608 C9.877376,2.578304 9.42592,4.820224 8.22464,6.319232 C7.66912,7.012224 7.32224,7.972864 7.279872,8.904064 C7.282816,8.935936 7.284352,8.968192 7.284352,9.00096 C7.284352,9.0464 7.281408,9.091328 7.275648,9.135232 C7.283584,9.954816 7.536896,10.732032 8.102528,11.259904 C8.515968,11.645824 8.538368,12.29376 8.152576,12.7072 C7.766784,13.12064 7.118976,13.143296 6.70528,12.757248 C5.961216,12.062848 5.481728,11.11616 5.308544,10.02496 L2.116224,10.02496 L2.116224,10.649088 L8.143488,18.91264 C8.160128,18.934912 8.176128,18.957952 8.191232,18.981888 C8.256384,19.084672 8.301056,19.195264 8.326144,19.308544 C8.359168,19.457408 8.357632,19.6096 8.32512,19.75424 C8.324992,19.75424 8.324992,19.754368 8.324992,19.754368 C8.324864,19.75488 8.324736,19.755392 8.324608,19.756032 C8.291456,19.902592 8.226176,20.042368 8.130432,20.163712 C8.05952,20.253568 7.972608,20.332928 7.870976,20.396672 C7.84768,20.411392 7.824,20.425088 7.799808,20.437632 C6.545152,21.124992 5.42784,23.574912 4.7328,27.164032 C3.991168,30.993792 3.736192,35.896576 3.992832,41.363456 L31.389312,41.363456 L31.389312,31.258752 C31.389312,30.693248 31.847808,30.234752 32.413312,30.234752 C35.725056,30.234752 38.419456,27.54048 38.419456,24.228736 L38.419456,16.031232 C38.419456,12.71936 35.725056,10.025088 32.413312,10.025088 L25.391872,10.025088 L25.391872,32.194048 C25.391872,33.980928 23.93792,35.434752 22.150784,35.434752 C20.363392,35.434752 18.909824,33.980928 18.909824,32.194048 L18.909824,13.057024 C18.909824,12.49152 19.36832,12.033024 19.933824,12.033024 C20.499328,12.033024 20.957824,12.49152 20.957824,13.057024 L20.957824,32.193792 C20.957824,32.851456 21.492864,33.386496 22.150272,33.386496 C22.808704,33.386496 23.343872,32.851456 23.343872,32.193792 L23.343872,10.024832 L14.503424,10.02496 L14.503424,7.97696 L32.41344,7.976832 C36.854144,7.976832 40.467328,11.589888 40.467328,16.030976 Z M33.435136,43.4112 L2.116096,43.4112 L2.116096,45.911424 L33.435136,45.911424 L33.435136,43.4112 Z M32.413184,26.33408 C32.978688,26.33408 33.437184,25.875584 33.437184,25.31008 L33.437184,14.94912 C33.437184,14.383616 32.978688,13.92512 32.413184,13.92512 C31.84768,13.92512 31.389184,14.383616 31.389184,14.94912 L31.389184,25.31008 C31.389184,25.875712 31.84768,26.33408 32.413184,26.33408 Z" id="Shape"/></g></g></g></g></svg><svg height="48" viewBox="0 0 41 48" width="41" x="4" y="414"><g id="Events" stroke="none" stroke-width="1" fill="none" fill-rule="evenodd"><g id="Assets" transform="translate(-350 -325)"><g id="Icons-/-Teapot" transform="translate(344 323)"><g id="Icon" fill="#D8D8D8" fill-opacity="0"><circle id="Oval" cx="26" cy="26" r="26"/></g><g id="hot-kettle" transform="translate(6 2)" fill="#333" fill-rule="nonzero"><path d="M10.901888,5.038464 C11.693696,4.05056 12.003328,2.51648 11.655168,1.307776 C11.498624,0.764288 11.812352,0.196864 12.355712,0.04032 C12.8992,-0.116224 13.466624,0.197376 13.623168,0.740864 C14.152704,2.578688 13.701248,4.82048 12.499968,6.31936 C11.405696,7.684608 11.121024,10.087424 12.377728,11.259904 C12.791168,11.645696 12.813696,12.293632 12.428032,12.7072 C12.226432,12.923392 11.953024,13.032704 11.678976,13.032704 C11.428864,13.032704 11.178112,12.941568 10.980736,12.757504 C8.835968,10.756736 9.208448,7.150976 10.901888,5.038464 Z M17.633024,6.227456 L24.367616,6.227456 C24.93312,6.227456 25.391616,5.76896 25.391616,5.203456 C25.391616,4.637952 24.93312,4.179456 24.367616,4.179456 L17.633024,4.179456 C17.06752,4.179456 16.609024,4.637952 16.609024,5.203456 C16.609024,5.76896 17.06752,6.227456 17.633024,6.227456 Z M40.467328,16.030976 L40.467328,24.22848 C40.467328,28.32256 37.396352,31.713024 33.437184,32.217856 L33.437184,41.363328 L34.459008,41.363328 C35.024512,41.363328 35.483008,41.821824 35.483008,42.387328 L35.483008,46.935552 C35.483008,47.501056 35.024512,47.959552 34.459008,47.959552 L1.092096,47.959552 C0.526592,47.959552 0.068096,47.501056 0.068096,46.935552 L0.068096,42.3872 C0.068096,41.821696 0.526592,41.3632 1.092096,41.3632 L1.942656,41.3632 C1.540224,32.53248 2.409344,22.609536 5.901824,19.31456 L0.264704,11.586176 C0.13696,11.410944 0.068096,11.199616 0.068096,10.982784 L0.068096,9.000832 C0.068096,8.729216 0.176,8.468736 0.368,8.276736 C0.560128,8.084736 0.82048,7.976832 1.092096,7.976832 L5.330944,7.97696 C5.517056,6.89472 5.969152,5.85856 6.62656,5.038464 C7.418368,4.05056 7.728,2.51648 7.379584,1.307904 C7.222912,0.764544 7.53664,0.196992 8.08,0.04032 C8.623488,-0.116352 9.19104,0.197248 9.347456,0.740608 C9.877376,2.578304 9.42592,4.820224 8.22464,6.319232 C7.66912,7.012224 7.32224,7.972864 7.279872,8.904064 C7.282816,8.935936 7.284352,8.968192 7.284352,9.00096 C7.284352,9.0464 7.281408,9.091328 7.275648,9.135232 C7.283584,9.954816 7.536896,10.732032 8.102528,11.259904 C8.515968,11.645824 8.538368,12.29376 8.152576,12.7072 C7.766784,13.12064 7.118976,13.143296 6.70528,12.757248 C5.961216,12.062848 5.481728,11.11616 5.308544,10.02496 L2.116224,10.02496 L2.116224,10.649088 L8.143488,18.91264 C8.160128,18.934912 8.176128,18.957952 8.191232,18.981888 C8.256384,19.084672 8.301056,19.195264 8.326144,19.308544 C8.359168,19.457408 8.357632,19.6096 8.32512,19.75424 C8.324992,19.75424 8.324992,19.754368 8.324992,19.754368 C8.324864,19.75488 8.324736,19.755392 8.324608,19.756032 C8.291456,19.902592 8.226176,20.042368 8.130432,20.163712 C8.05952,20.253568 7.972608,20.332928 7.870976,20.396672 C7.84768,20.411392 7.824,20.425088 7.799808,20.437632 C6.545152,21.124992 5.42784,23.574912 4.7328,27.164032 C3.991168,30.993792 3.736192,35.896576 3.992832,41.363456 L31.389312,41.363456 L31.389312,31.258752 C31.389312,30.693248 31.847808,30.234752 32.413312,30.234752 C35.725056,30.234752 38.419456,27.54048 38.419456,24.228736 L38.419456,16.031232 C38.419456,12.71936 35.725056,10.025088 32.413312,10.025088 L25.391872,10.025088 L25.391872,32.194048 C25.391872,33.980928 23.93792,35.434752 22.150784,35.434752 C20.363392,35.434752 18.909824,33.980928 18.909824,32.194048 L18.909824,13.057024 C18.909824,12.49152 19.36832,12.033024 19.933824,12.033024 C20.499328,12.033024 20.957824,12.49152 20.957824,13.057024 L20.957824,32.193792 C20.957824,32.851456 21.492864,33.386496 22.150272,33.386496 C22.808704,33.386496 23.343872,32.851456 23.343872,32.193792 L23.343872,10.024832 L14.503424,10.02496 L14.503424,7.97696 L32.41344,7.976832 C36.854144,7.976832 40.467328,11.589888 40.467328,16.030976 Z M33.435136,43.4112 L2.116096,43.4112 L2.116096,45.911424 L33.435136,45.911424 L33.435136,43.4112 Z M32.413184,26.33408 C32.978688,26.33408 33.437184,25.875584 33.437184,25.31008 L33.437184,14.94912 C33.437184,14.383616 32.978688,13.92512 32.413184,13.92512 C31.84768,13.92512 31.389184,14.383616 31.389184,14.94912 L31.389184,25.31008 C31.389184,25.875712 31.84768,26.33408 32.413184,26.33408 Z" id="Shape"/></g></g></g></g></svg><svg height="41" viewBox="0 0 48 41" width="48" x="4" y="466"><g id="Events" stroke="none" stroke-width="1" fill="none" fill-rule="evenodd"><g id="Assets" transform="translate(-46 -245)"><g id="Icon" transform="translate(44 239)"><circle id="Oval" fill-opacity="0" fill="#D8D8D8" cx="26" cy="26" r="26"/><g id="air-conditioner" transform="translate(2 6)" fill="#333" fill-rule="nonzero"><path d="M36,13.0624687 C36,12.5097188 35.5527188,12.0624375 34.9999688,12.0624375 L4.99996875,12.0624375 C4.44721875,12.0624375 3.9999375,12.5097187 3.9999375,13.0624687 L3.9999375,17.0625 C3.9999375,17.61525 4.44721875,18.0625312 4.99996875,18.0625312 L34.9999688,18.0625312 C35.5527188,18.0625312 36,17.61525 36,17.0625 L36,13.0624687 Z M34.0000312,16.0624688 L6,16.0624688 L6,14.0625 L34.0000312,14.0625 L34.0000312,16.0624688 Z" id="Shape"/><path d="M4.99996875,8.0625 L27,8.0625 C27.55275,8.0625 28.0000313,7.61521875 28.0000313,7.06246875 C28.0000313,6.50971875 27.55275,6.0624375 27,6.0624375 L4.99996875,6.0624375 C4.44721875,6.0624375 3.9999375,6.50971875 3.9999375,7.06246875 C4.00003125,7.61521875 4.4473125,8.0625 4.99996875,8.0625 Z" id="Shape"/><circle id="Oval" cx="34" cy="6.063" r="2"/><path d="M28.0000313,25.0624688 C28.0000313,24.5097188 27.55275,24.0624375 27,24.0624375 C26.44725,24.0624375 25.9999688,24.5097188 25.9999688,25.0624688 C25.9999688,26.8651875 26.6474063,27.8369063 27.1679063,28.6171875 C27.6327188,29.3145 27.9999375,29.8652813 27.9999375,31.0624688 C27.9999375,31.6152188 28.4472188,32.0625 28.9999688,32.0625 C29.5527188,32.0625 30,31.6152187 30,31.0624688 C30,29.25975 29.3525625,28.2880312 28.8320625,27.50775 C28.3671563,26.8105313 28.0000313,26.25975 28.0000313,25.0624688 Z" id="Shape"/><path d="M10.9999688,24.0625312 C10.4472187,24.0625312 9.9999375,24.5098125 9.9999375,25.0625625 C9.9999375,26.2598437 9.63271875,26.810625 9.16790625,27.5078437 C8.64740625,28.288125 7.99996875,29.2598437 7.99996875,31.0625625 C7.99996875,31.6152187 8.44725,32.0625 9,32.0625 C9.55275,32.0625 10.0000312,31.6152187 10.0000312,31.0624687 C10.0000312,29.8651875 10.36725,29.3144062 10.8320625,28.6171875 C11.3525625,27.8369062 12,26.8651875 12,25.0624687 C12,24.5098125 11.5527188,24.0625312 10.9999688,24.0625312 Z" id="Shape"/><path d="M19.0000312,24.0625312 C18.4472812,24.0625312 18,24.5098125 18,25.0625625 L18,31.0625625 C18,31.6153125 18.4472812,32.0625937 19.0000312,32.0625937 C19.5527812,32.0625937 20.0000625,31.6153125 20.0000625,31.0625625 L20.0000625,25.0625625 C19.9999687,24.5098125 19.5527812,24.0625312 19.0000312,24.0625312 Z" id="Shape"/><path d="M42,24.0625312 L40.9999688,24.0625312 L40.9999688,23.0625 C40.9999688,22.50975 40.5526875,22.0624688 39.9999375,22.0624688 C39.4471875,22.0624688 39,22.50975 39,23.0625 L39,24.0625312 L37.9999688,24.0625312 C37.4472187,24.0625312 36.9999375,24.5098125 36.9999375,25.0625625 C36.9999375,25.6153125 37.4472188,26.0625937 37.9999688,26.0625937 L39,26.0625937 L39,27.062625 C39,27.615375 39.4472813,28.0626562 40.0000312,28.0626562 C40.5527812,28.0626562 41.0000625,27.615375 41.0000625,27.062625 L41.0000625,26.0625 L42,26.0625 C42.55275,26.0625 43.0000312,25.6152187 43.0000312,25.0624688 C43.0000312,24.5098125 42.55275,24.0625312 42,24.0625312 Z" id="Shape"/><path d="M42,32.0625 L37.9999688,32.0625 C37.4472187,32.0625 36.9999375,32.5097813 36.9999375,33.0625312 C36.9999375,33.6152812 37.4472188,34.0625625 37.9999688,34.0625625 L42,34.0625625 C42.55275,34.0625625 43.0000312,33.6152812 43.0000312,33.0625312 C43.0000312,32.5097813 42.55275,32.0625 42,32.0625 Z" id="Shape"/><path d="M43.9999688,18.0625312 L39.9999375,18.0625312 L39.9999375,4.06246875 C39.9999375,1.8564375 38.2060313,0.0624375 35.9999063,0.0624375 L4.00003125,0.0624375 C1.79390625,0.06253125 0,1.8564375 0,4.06246875 L0,18.0624375 C0,20.2684687 1.79390625,22.0624687 4.00003125,22.0624687 L32.0000625,22.0624687 L32.0000625,32.0625 C32.0000625,36.473625 35.5889062,40.0624687 40.0000312,40.0624687 C44.4111562,40.0624687 48,36.473625 48,32.0625 L48,22.0624688 C48,19.8564375 46.2060938,18.0625312 43.9999688,18.0625312 Z M32.5562812,20.0625 L4.00003125,20.0625 C2.89753125,20.0625 2.0000625,19.1650312 2.0000625,18.0625312 L2.0000625,4.06246875 C1.99996875,2.95996875 2.8974375,2.0625 4.00003125,2.0625 L36,2.0625 C37.1025,2.0625 37.9999688,2.95996875 37.9999688,4.06246875 L37.9999688,18.0624375 L36,18.0624375 C34.5257813,18.0625312 33.2500312,18.8727188 32.5562812,20.0625 Z M46.0000312,32.0625 C46.0000312,35.371125 43.3086562,38.0625 40.0000312,38.0625 C36.6914062,38.0625 34.0000312,35.371125 34.0000312,32.0625 L34.0000312,22.0624688 C34.0000312,20.9599688 34.8975,20.0625 36,20.0625 L43.9999688,20.0625 C45.1024687,20.0625 45.9999375,20.9599687 45.9999375,22.0624687 L45.9999375,32.0625 L46.0000312,32.0625 Z" id="Shape"/></g></g></g></g></svg><svg height="41" viewBox="0 0 48 41" width="48" x="4" y="511"><g id="Events" stroke="none" stroke-width="1" fill="none" fill-rule="evenodd"><g id="Assets" transform="translate(-791 -245)"><path id="Rectangle" fill="#none" d="M720 -6H1468V1204H720z"/><g id="Icon" transform="translate(789 239)"><circle id="Oval" fill-opacity="0" fill="#D8D8D8" cx="26" cy="26" r="26"/><g id="air-conditioner" transform="translate(2 6)" fill="#FFF" fill-rule="nonzero"><path d="M36,13.0624687 C36,12.5097188 35.5527188,12.0624375 34.9999688,12.0624375 L4.99996875,12.0624375 C4.44721875,12.0624375 3.9999375,12.5097187 3.9999375,13.0624687 L3.9999375,17.0625 C3.9999375,17.61525 4.44721875,18.0625312 4.99996875,18.0625312 L34.9999688,18.0625312 C35.5527188,18.0625312 36,17.61525 36,17.0625 L36,13.0624687 Z M34.0000312,16.0624688 L6,16.0624688 L6,14.0625 L34.0000312,14.0625 L34.0000312,16.0624688 Z" id="Shape"/><path d="M4.99996875,8.0625 L27,8.0625 C27.55275,8.0625 28.0000313,7.61521875 28.0000313,7.06246875 C28.0000313,6.50971875 27.55275,6.0624375 27,6.0624375 L4.99996875,6.0624375 C4.44721875,6.0624375 3.9999375,6.50971875 3.9999375,7.06246875 C4.00003125,7.61521875 4.4473125,8.0625 4.99996875,8.0625 Z" id="Shape"/><circle id="Oval" cx="34" cy="6.063" r="2"/><path d="M28.0000313,25.0624688 C28.0000313,24.5097188 27.55275,24.0624375 27,24.0624375 C26.44725,24.0624375 25.9999688,24.5097188 25.9999688,25.0624688 C25.9999688,26.8651875 26.6474063,27.8369063 27.1679063,28.6171875 C27.6327188,29.3145 27.9999375,29.8652813 27.9999375,31.0624688 C27.9999375,31.6152188 28.4472188,32.0625 28.9999688,32.0625 C29.5527188,32.0625 30,31.6152187 30,31.0624688 C30,29.25975 29.3525625,28.2880312 28.8320625,27.50775 C28.3671563,26.8105313 28.0000313,26.25975 28.0000313,25.0624688 Z" id="Shape"/><path d="M10.9999688,24.0625312 C10.4472187,24.0625312 9.9999375,24.5098125 9.9999375,25.0625625 C9.9999375,26.2598437 9.63271875,26.810625 9.16790625,27.5078437 C8.64740625,28.288125 7.99996875,29.2598437 7.99996875,31.0625625 C7.99996875,31.6152187 8.44725,32.0625 9,32.0625 C9.55275,32.0625 10.0000312,31.6152187 10.0000312,31.0624687 C10.0000312,29.8651875 10.36725,29.3144062 10.8320625,28.6171875 C11.3525625,27.8369062 12,26.8651875 12,25.0624687 C12,24.5098125 11.5527188,24.0625312 10.9999688,24.0625312 Z" id="Shape"/><path d="M19.0000312,24.0625312 C18.4472812,24.0625312 18,24.5098125 18,25.0625625 L18,31.0625625 C18,31.6153125 18.4472812,32.0625937 19.0000312,32.0625937 C19.5527812,32.0625937 20.0000625,31.6153125 20.0000625,31.0625625 L20.0000625,25.0625625 C19.9999687,24.5098125 19.5527812,24.0625312 19.0000312,24.0625312 Z" id="Shape"/><path d="M42,24.0625312 L40.9999688,24.0625312 L40.9999688,23.0625 C40.9999688,22.50975 40.5526875,22.0624688 39.9999375,22.0624688 C39.4471875,22.0624688 39,22.50975 39,23.0625 L39,24.0625312 L37.9999688,24.0625312 C37.4472187,24.0625312 36.9999375,24.5098125 36.9999375,25.0625625 C36.9999375,25.6153125 37.4472188,26.0625937 37.9999688,26.0625937 L39,26.0625937 L39,27.062625 C39,27.615375 39.4472813,28.0626562 40.0000312,28.0626562 C40.5527812,28.0626562 41.0000625,27.615375 41.0000625,27.062625 L41.0000625,26.0625 L42,26.0625 C42.55275,26.0625 43.0000312,25.6152187 43.0000312,25.0624688 C43.0000312,24.5098125 42.55275,24.0625312 42,24.0625312 Z" id="Shape"/><path d="M42,32.0625 L37.9999688,32.0625 C37.4472187,32.0625 36.9999375,32.5097813 36.9999375,33.0625312 C36.9999375,33.6152812 37.4472188,34.0625625 37.9999688,34.0625625 L42,34.0625625 C42.55275,34.0625625 43.0000312,33.6152812 43.0000312,33.0625312 C43.0000312,32.5097813 42.55275,32.0625 42,32.0625 Z" id="Shape"/><path d="M43.9999688,18.0625312 L39.9999375,18.0625312 L39.9999375,4.06246875 C39.9999375,1.8564375 38.2060313,0.0624375 35.9999063,0.0624375 L4.00003125,0.0624375 C1.79390625,0.06253125 0,1.8564375 0,4.06246875 L0,18.0624375 C0,20.2684687 1.79390625,22.0624687 4.00003125,22.0624687 L32.0000625,22.0624687 L32.0000625,32.0625 C32.0000625,36.473625 35.5889062,40.0624687 40.0000312,40.0624687 C44.4111562,40.0624687 48,36.473625 48,32.0625 L48,22.0624688 C48,19.8564375 46.2060938,18.0625312 43.9999688,18.0625312 Z M32.5562812,20.0625 L4.00003125,20.0625 C2.89753125,20.0625 2.0000625,19.1650312 2.0000625,18.0625312 L2.0000625,4.06246875 C1.99996875,2.95996875 2.8974375,2.0625 4.00003125,2.0625 L36,2.0625 C37.1025,2.0625 37.9999688,2.95996875 37.9999688,4.06246875 L37.9999688,18.0624375 L36,18.0624375 C34.5257813,18.0625312 33.2500312,18.8727188 32.5562812,20.0625 Z M46.0000312,32.0625 C46.0000312,35.371125 43.3086562,38.0625 40.0000312,38.0625 C36.6914062,38.0625 34.0000312,35.371125 34.0000312,32.0625 L34.0000312,22.0624688 C34.0000312,20.9599688 34.8975,20.0625 36,20.0625 L43.9999688,20.0625 C45.1024687,20.0625 45.9999375,20.9599687 45.9999375,22.0624687 L45.9999375,32.0625 L46.0000312,32.0625 Z" id="Shape"/></g></g></g></g></svg><svg height="48" viewBox="0 0 40 48" width="40" x="4" y="556"><g id="Events" stroke="none" stroke-width="1" fill="none" fill-rule="evenodd"><g id="Assets" transform="translate(-450 -241)"><g id="music" transform="translate(444 239)"><circle id="Oval" fill-opacity="0" fill="#D8D8D8" cx="26" cy="26" r="26"/><g id="011-quaver" transform="translate(6 2)" fill="#333" fill-rule="nonzero"><path d="M12.3031656,28.4217423 C12.9536687,27.4411288 13.2740613,26.3768834 13.2503558,25.3278037 L13.2503558,4.44780368 C14.1744294,5.46478528 15.3273129,6.52490798 16.5234847,7.10429448 C18.6535951,8.13614724 18.7721227,9.73531288 18.7074847,11.4216442 C18.7040982,11.5108712 18.7008589,11.5952393 18.6985031,11.6741595 C18.6811288,12.2837301 19.1612761,12.7921472 19.7708466,12.8095215 C19.7815951,12.809816 19.7921963,12.8099632 19.8029448,12.8099632 C20.3982331,12.8099632 20.8891288,12.336 20.9062086,11.7371779 C20.9082699,11.6650307 20.9112147,11.5878773 20.9143067,11.5061595 C20.9674601,10.1169571 21.0920245,6.86355828 17.486135,5.11671166 C15.6973252,4.25020859 13.6917791,1.59651534 13.0699877,0.647116564 C13.0688098,0.645349693 13.0674847,0.643877301 13.0663067,0.64196319 C13.0532025,0.62208589 13.0386258,0.603239264 13.0243436,0.584245399 C13.0162454,0.573644172 13.0087362,0.562453988 13.0001963,0.552 C12.9897423,0.539190184 12.9781104,0.527411043 12.9670675,0.515042945 C12.8884417,0.427141104 12.798184,0.354110429 12.699681,0.297128834 C12.6901104,0.291533742 12.6811288,0.285202454 12.671411,0.28004908 C12.6631656,0.275631902 12.6546258,0.272245399 12.6463804,0.26797546 C12.5437546,0.215705521 12.4318528,0.179337423 12.3136196,0.161226994 C12.2971288,0.158576687 12.280638,0.155337423 12.2638528,0.153570552 C12.2506012,0.15209816 12.2370552,0.15195092 12.2236564,0.150920245 C12.1999509,0.149300613 12.1762454,0.147533742 12.1523926,0.147386503 C12.1503313,0.147386503 12.1482699,0.147092025 12.1460613,0.147092025 C12.1359018,0.147092025 12.1260368,0.148417178 12.1158773,0.148564417 C12.0912883,0.149153374 12.0666994,0.15003681 12.0422577,0.152245399 C12.0279755,0.153570552 12.014135,0.15592638 12.0001472,0.157840491 C11.9785031,0.160785276 11.9567117,0.163582822 11.9350675,0.167705521 C11.9188712,0.170944785 11.9031166,0.174920245 11.8870675,0.178748466 C11.8682209,0.183312883 11.8495215,0.187730061 11.8309693,0.193325153 C11.8127117,0.198773006 11.7948957,0.205251534 11.7770798,0.211582822 C11.7613252,0.217177914 11.7454233,0.222478528 11.729816,0.228809816 C11.7094969,0.237055215 11.6899141,0.246478528 11.6703313,0.25590184 C11.6575215,0.26208589 11.6445644,0.267680982 11.6319018,0.274306748 C11.6101104,0.285791411 11.5892025,0.298601227 11.5682945,0.311411043 C11.5596074,0.316858896 11.550773,0.321128834 11.5422331,0.326723926 C11.5404663,0.32790184 11.5388466,0.329374233 11.5369325,0.330552147 C11.5170552,0.343803681 11.4980613,0.358233129 11.4790675,0.372662577 C11.4684663,0.380760736 11.4572761,0.388269939 11.4469693,0.396662577 C11.433865,0.407411043 11.4214969,0.419337423 11.4088344,0.430822086 C11.3199018,0.510478528 11.2462822,0.60206135 11.1891534,0.701889571 C11.184589,0.709840491 11.1792883,0.717496933 11.1748712,0.725595092 C11.170454,0.733693252 11.1670675,0.742233129 11.1627975,0.750478528 C11.1106748,0.852515337 11.074454,0.963680982 11.0563436,1.08103067 C11.053546,1.09855215 11.0501595,1.11577914 11.0483926,1.13330061 C11.0470675,1.14611043 11.046773,1.15921472 11.0458896,1.17217178 C11.0441227,1.19631902 11.0425031,1.2206135 11.0422086,1.24490798 C11.0422086,1.24696933 11.0419141,1.24903067 11.0419141,1.25109202 L11.0419141,21.3866503 C10.0470184,20.7186258 8.78311656,20.3399264 7.38478528,20.3399264 C6.58439264,20.3399264 5.7806135,20.4671411 4.99568098,20.7178896 C1.49992638,21.8351411 -0.585423313,25.1172515 0.346748466,28.0342086 C1.05379141,30.2469202 3.26797546,31.6767607 5.98777914,31.6767607 C6.78817178,31.6767607 7.59195092,31.549546 8.37688344,31.2987975 C10.0275828,30.7718282 11.4220859,29.7498405 12.3031656,28.4217423 Z M10.4628221,27.2006871 C9.85825767,28.1119509 8.87867485,28.820319 7.70458896,29.1954847 C7.13727607,29.3767362 6.55965644,29.4686135 5.9876319,29.4686135 C4.24770552,29.4686135 2.85923926,28.641865 2.45035583,27.3623558 C1.88878528,25.6052025 3.33217178,23.5684417 5.66782822,22.8220859 C6.2351411,22.6408344 6.81276074,22.5489571 7.38463804,22.5489571 C9.12471166,22.5489571 10.5131779,23.3757055 10.9220613,24.655362 C11.1798773,25.4619387 11.0167362,26.3658405 10.4628221,27.2006871 Z" id="Shape"/><path d="M39.7412025,34.4938896 L39.7412025,14.9305031 C39.7412025,14.928589 39.7412025,14.9266748 39.7412025,14.9246135 L39.7412025,10.7793865 C39.7412025,10.7774724 39.740908,10.7757055 39.740908,10.7737914 C39.7407607,10.7462577 39.7389939,10.7187239 39.7367853,10.6911902 C39.7360491,10.6816196 39.7359018,10.6717546 39.7348712,10.662184 C39.7323681,10.6398037 39.7283926,10.6175706 39.7247117,10.5953374 C39.7222086,10.5806135 39.7204417,10.5657423 39.7173497,10.5511656 C39.7142577,10.5370307 39.7099877,10.5228957 39.706454,10.508908 C39.7008589,10.4866748 39.695411,10.4642945 39.6884908,10.4425031 C39.6856933,10.433816 39.6820123,10.4251288 39.6790675,10.4164417 C39.6697914,10.3899387 39.6602209,10.3637301 39.6490307,10.3381104 C39.6482945,10.3363436 39.6478528,10.3347239 39.6471166,10.3329571 C39.6435828,10.3250061 39.6393129,10.3177914 39.6356319,10.310135 C39.624589,10.2865767 39.6133988,10.2634601 39.6007362,10.2409325 C39.593227,10.2273865 39.5848344,10.2145767 39.5767362,10.2016196 C39.5662822,10.1846871 39.5559755,10.1676074 39.544638,10.1512638 C39.5335951,10.1352147 39.5216687,10.1199018 39.5097423,10.104589 C39.5001718,10.0922209 39.4907485,10.0795583 39.4807362,10.0677791 C39.4668957,10.0512883 39.452319,10.0358282 39.4375951,10.0203681 C39.4278773,10.0102086 39.418454,9.9997546 39.4084417,9.99003681 C39.3931288,9.97516564 39.3773742,9.96117791 39.3614724,9.94733742 C39.3502822,9.93761963 39.3392393,9.9277546 39.3277546,9.91862577 C39.312589,9.90640491 39.2968344,9.89506748 39.2810798,9.88373006 C39.2673865,9.87386503 39.2536933,9.864 39.2395583,9.85472393 C39.2252761,9.84544785 39.2106994,9.83690798 39.1959755,9.82822086 C39.1793374,9.81850307 39.1626994,9.80878528 39.1454724,9.79980368 C39.1322209,9.79303067 39.1186748,9.78684663 39.1052761,9.78051534 C39.0862822,9.77168098 39.0672883,9.76284663 39.0477055,9.75504294 C39.0343067,9.74959509 39.0207607,9.74503067 39.0072147,9.74017178 C38.9874847,9.73325153 38.9677546,9.72618405 38.9475828,9.72029448 C38.9319755,9.71573006 38.9162209,9.71204908 38.9004663,9.70822086 C38.8822086,9.70380368 38.8640982,9.69909202 38.8453988,9.69555828 C38.8250798,9.69173006 38.8046135,9.68893252 38.784,9.68613497 C38.7695706,9.68422086 38.7552883,9.68186503 38.7407117,9.68039264 C38.7137669,9.67788957 38.6868221,9.67700613 38.6597301,9.67641718 C38.6520736,9.67626994 38.6447117,9.67523926 38.6372025,9.67523926 C38.6355828,9.67523926 38.6341104,9.6753865 38.6323436,9.67553374 C38.6031902,9.67568098 38.5738896,9.67744785 38.544589,9.67995092 C38.536638,9.68053988 38.5285399,9.68068712 38.520589,9.68157055 C38.4964417,9.68407362 38.4724417,9.68834356 38.4484417,9.6926135 C38.4354847,9.69482209 38.4223804,9.69644172 38.4095706,9.69909202 C38.3939632,9.70233129 38.3785031,9.70704294 38.3628957,9.7110184 C38.3419877,9.71646626 38.3209325,9.72132515 38.3006135,9.72795092 C38.2911902,9.73104294 38.2817669,9.7350184 38.2723436,9.73825767 C38.2464294,9.7473865 38.2208098,9.75666258 38.1957791,9.76755828 C38.1941595,9.76829448 38.1923926,9.7687362 38.1906258,9.76947239 L22.4545767,16.7241718 C22.4526626,16.724908 22.4507485,16.7259387 22.4486871,16.7266748 L22.4360245,16.7322699 C22.4280736,16.7358037 22.4208589,16.7402209 22.4130552,16.7439018 C22.3896442,16.7549448 22.3663804,16.766135 22.3438528,16.7786503 C22.3303067,16.7863067 22.3173497,16.7945521 22.3042454,16.8026503 C22.2874601,16.8131043 22.2705276,16.8232638 22.254184,16.834454 C22.2379877,16.8457914 22.2225276,16.8577178 22.2070675,16.8697914 C22.1948466,16.8792147 22.1826258,16.8884908 22.1706994,16.8983558 C22.1540613,16.9123436 22.138454,16.9270675 22.1228466,16.9417914 C22.1128344,16.951362 22.1025276,16.9607853 22.0928098,16.9706503 C22.0779387,16.9859632 22.0638037,17.001865 22.0499632,17.0177669 C22.0402454,17.0289571 22.0305276,17.0398528 22.0212515,17.0514847 C22.0091779,17.0667975 21.9976933,17.0822577 21.9865031,17.0980123 C21.976638,17.1117055 21.966773,17.125546 21.9574969,17.139681 C21.9482209,17.153816 21.9398282,17.1682454 21.9312883,17.1826748 C21.9214233,17.1996074 21.9115583,17.2163926 21.9025767,17.2339141 C21.8958037,17.2468712 21.8897669,17.2599755 21.8837301,17.273227 C21.8746012,17.2926626 21.8657669,17.3119509 21.8576687,17.3319755 C21.8525153,17.3447853 21.8480982,17.3577423 21.8435337,17.3706994 C21.8361718,17.3911656 21.8291043,17.4113374 21.8229202,17.4323926 C21.8186503,17.4471166 21.8151166,17.462135 21.8114356,17.4770061 C21.8067239,17.4961472 21.801865,17.5152883 21.798184,17.5347239 C21.7945031,17.553865 21.792,17.5731534 21.7893497,17.5924417 C21.7871411,17.6081963 21.784638,17.6236564 21.7831656,17.6395583 C21.7808098,17.6647362 21.7799264,17.6902086 21.7793374,17.715681 C21.7791902,17.7246626 21.7780123,17.7333497 21.7780123,17.7423313 L21.7780123,17.7566135 C21.7780123,17.7585276 21.7780123,17.7604417 21.7780123,17.7623558 L21.7780123,21.9221595 C21.7780123,21.9240736 21.7780123,21.9259877 21.7780123,21.9279018 L21.7780123,37.6791166 C20.7850307,37.0163926 19.5256933,36.6407853 18.1332515,36.6407853 C17.3328589,36.6407853 16.5290798,36.768 15.7441472,37.0187485 C14.0933006,37.5463067 12.6989448,38.5681472 11.817865,39.8963926 C10.8859877,41.300908 10.6293497,42.8773988 11.0952147,44.3350675 C11.8022577,46.5477791 14.0164417,47.9776196 16.7362454,47.9776196 C17.536638,47.9776196 18.3404172,47.8504049 19.1253497,47.5996564 C20.7760491,47.0720982 22.1705521,46.0502577 23.0516319,44.7221595 C23.7554356,43.6613006 24.0733252,42.5026748 23.9866012,41.3709939 L23.9866012,22.6271411 L37.5326135,16.6402454 L37.5326135,30.8021595 C36.5394847,30.1394356 35.2802945,29.763681 33.8877055,29.763681 C33.0873129,29.763681 32.2835337,29.8908957 31.4986012,30.1416442 C28.0028466,31.2588957 25.9174969,34.5410061 26.8496687,37.4579632 C27.5567117,39.6706748 29.7708957,41.1005153 32.4906994,41.1005153 C33.291092,41.1005153 34.0948712,40.9733006 34.8798037,40.7225521 C36.5305031,40.1949939 37.9250061,39.1731534 38.8062331,37.844908 C39.5100368,36.7843436 39.8280736,35.6255706 39.7412025,34.4938896 Z M18.4532025,45.4960491 C17.8858896,45.6773006 17.3082699,45.7691779 16.7362454,45.7691779 C14.996319,45.7691779 13.6078528,44.9424294 13.1989693,43.6629202 C12.9413006,42.8563436 13.1042945,41.9522945 13.6582086,41.1174479 C14.262773,40.2063313 15.2423558,39.497816 16.4164417,39.1226503 C16.9837546,38.9413988 17.5613742,38.8495215 18.1332515,38.8495215 C19.8731779,38.8495215 21.2616442,39.6762699 21.6705276,40.9559264 C21.7264785,41.1309939 21.7613742,41.3110675 21.7780123,41.4936442 L21.7780123,41.9110675 C21.7780123,41.9231411 21.7794847,41.934773 21.7797791,41.9468466 C21.7373742,42.4657178 21.5464049,42.9960736 21.2112883,43.5012515 C20.6067239,44.4123681 19.6272883,45.1207362 18.4532025,45.4960491 Z M23.9866012,20.2124172 L23.9866012,18.4614479 L37.5326135,12.4746994 L37.5326135,14.2255215 L23.9866012,20.2124172 Z M34.2078037,38.6189448 C33.6404908,38.8001963 33.0628712,38.8920736 32.4908466,38.8920736 C30.7509202,38.8920736 29.362454,38.0653252 28.9535706,36.785816 C28.392,35.0286626 29.8353865,32.9919018 32.1710429,32.245546 C32.7383558,32.0642945 33.3159755,31.9724172 33.8878528,31.9724172 C35.6279264,31.9724172 37.0163926,32.7991656 37.4252761,34.0788221 C37.481227,34.2538896 37.5161227,34.4339632 37.5327607,34.6165399 L37.5327607,34.8435828 C37.5327607,34.8870184 37.5358528,34.929865 37.5408589,34.9719755 C37.5159755,35.5216196 37.3223558,36.0871656 36.966184,36.6241472 C36.3613252,37.5352638 35.3818896,38.2436319 34.2078037,38.6189448 Z" id="Shape"/></g></g></g></g></svg><svg height="48" viewBox="0 0 39 48" width="39" x="4" y="608"><g id="Events" stroke="none" stroke-width="1" fill="none" fill-rule="evenodd"><g id="Assets" transform="translate(-351 -241)"><g id="Icon" transform="translate(344 239)"><circle id="Oval" fill-opacity="0" fill="#D8D8D8" cx="26" cy="26" r="26"/><g id="006-fridge" transform="translate(7 2)" fill="#333" fill-rule="nonzero"><path d="M29.6,5.6 L28,5.6 C27.5584,5.6 27.2,5.9576 27.2,6.4 C27.2,6.8424 27.5584,7.2 28,7.2 L29.6,7.2 C30.0416,7.2 30.4,6.8424 30.4,6.4 C30.4,5.9576 30.0416,5.6 29.6,5.6 Z" id="Shape"/><path d="M6.4,17.6 L4,17.6 L4,28.8 L13.6,28.8 L13.6,17.6 L11.2,17.6 L6.4,17.6 Z M9.6,19.2 L9.6,21.6 L8,21.6 L8,19.2 L9.6,19.2 Z M12,19.2 L12,27.2 L5.6,27.2 L5.6,19.2 L6.4,19.2 L6.4,23.2 L11.2,23.2 L11.2,19.2 L12,19.2 Z" id="Shape"/><path d="M16,16 C15.5584,16 15.2,16.3576 15.2,16.8 L15.2,29.6 C15.2,30.0424 15.5584,30.4 16,30.4 C16.4416,30.4 16.8,30.0424 16.8,29.6 L16.8,16.8 C16.8,16.3576 16.4416,16 16,16 Z" id="Shape"/><path d="M22.4,16 C21.9584,16 21.6,16.3576 21.6,16.8 L21.6,29.6 C21.6,30.0424 21.9584,30.4 22.4,30.4 C22.8416,30.4 23.2,30.0424 23.2,29.6 L23.2,16.8 C23.2,16.3576 22.8416,16 22.4,16 Z" id="Shape"/><path d="M12,36 C12,36.4424 12.3584,36.8 12.8,36.8 L25.6,36.8 C26.0416,36.8 26.4,36.4424 26.4,36 C26.4,35.5576 26.0416,35.2 25.6,35.2 L12.8,35.2 C12.3584,35.2 12,35.5576 12,36 Z" id="Shape"/><path d="M36.664,0 L1.736,0 C0.7792,0 0,0.7792 0,1.736 L0,32 L0,33.6 L0,45.656 C0,46.9488 1.0512,48 2.344,48 L36.056,48 C37.348,48 38.4,46.9488 38.4,45.656 L38.4,33.6 L38.4,32 L38.4,1.736 C38.4,0.7792 37.6208,0 36.664,0 Z M1.6,1.736 C1.6,1.6608 1.6608,1.6 1.736,1.6 L18.4,1.6 L18.4,32 L1.6,32 L1.6,1.736 Z M36.8,45.656 C36.8,46.0664 36.4664,46.4 36.056,46.4 L2.344,46.4 C1.9336,46.4 1.6,46.0664 1.6,45.656 L1.6,33.6 L36.8,33.6 L36.8,45.656 Z M20,32 L20,1.6 L36.664,1.6 C36.7392,1.6 36.8,1.6608 36.8,1.736 L36.8,32 L20,32 Z" id="Shape"/></g></g></g></g></svg><svg height="36" viewBox="0 0 48 36" width="48" x="4" y="660"><g id="Events" stroke="none" stroke-width="1" fill="none" fill-rule="evenodd"><g id="Assets" transform="translate(-891 -247)"><path id="Rectangle" fill="#none" d="M720 -6H1468V1204H720z"/><g id="Icon" transform="translate(889 239)"><circle id="Oval" fill-opacity="0" fill="#D8D8D8" cx="26" cy="26" r="26"/><g id="002-cctv" transform="translate(2 8)" fill="#FFF" fill-rule="nonzero"><path d="M24,25.9999688 C27.308625,25.9999688 30,23.3085938 30,19.9999688 C30,16.6913438 27.308625,13.9999688 24,13.9999688 C20.691375,13.9999688 18,16.6913438 18,19.9999688 C18,23.3085938 20.691375,25.9999688 24,25.9999688 Z M24,16.0000312 C26.2060312,16.0000312 28.0000313,17.7939375 28.0000313,20.0000625 C28.0000313,22.2061875 26.2060312,24 24,24 C21.7939687,24 19.9999688,22.2060938 19.9999688,19.9999687 C19.9999688,17.7938437 21.7939687,16.0000312 24,16.0000312 Z" id="Shape"/><path d="M22.9999688,21 C23.5527188,21 24,20.5527187 24,19.9999687 C24.55275,19.9999687 25.0000312,19.5526875 25.0000312,18.9999375 C25.0000312,18.4471875 24.55275,17.9999062 24,17.9999062 C22.8975,17.9999062 22.0000312,18.897375 22.0000312,19.999875 C22.0000313,20.5527187 22.4473125,21 22.9999688,21 Z" id="Shape"/><path d="M46.9999688,0 L1.00003125,0 C0.44728125,0 0,0.44728125 0,1.00003125 L0,8.0000625 C0,10.2060938 1.79390625,12 4.00003125,12 L4.00003125,16.0000312 C4.00003125,27.0283125 12.9717188,36 24,36 C35.0282812,36 43.9999687,27.0283125 43.9999687,16.0000312 L43.9999687,12 C46.2060938,12 48,10.2060938 48,7.99996875 L48,1.00003125 C48,0.44728125 47.5527187,0 46.9999688,0 Z M42,16.0000313 C42,25.924875 33.9248438,34.0000313 24,34.0000313 C14.0751562,34.0000313 6,25.924875 6,16.0000313 L6,12 L18.061875,12 C15.6114375,13.8244688 13.9999688,16.7174063 13.9999688,19.9999688 C13.9999688,25.5136875 18.486375,30 24,30 C29.513625,30 34.0000313,25.5136875 34.0000313,19.9999688 C34.0000313,16.7174062 32.3885625,13.8244687 29.938125,12 L42,12 L42,16.0000313 Z M24,12 C28.411125,12 31.9999688,15.5888437 31.9999688,19.9999687 C31.9999688,24.4110937 28.411125,27.9999375 24,27.9999375 C19.588875,27.9999375 16.0000312,24.4110937 16.0000312,19.9999687 C16.0000313,15.5888437 19.588875,12 24,12 Z M46.0000312,7.99996875 C46.0000312,9.10246875 45.1025625,9.9999375 44.0000625,9.9999375 L4.00003125,9.9999375 C2.89753125,9.9999375 2.0000625,9.10246875 2.0000625,7.99996875 L2.0000625,1.99996875 L46.0000313,1.99996875 L46.0000312,7.99996875 Z" id="Shape"/><circle id="Oval" cx="37" cy="15" r="1"/></g></g></g></g></svg><svg height="36" viewBox="0 0 48 36" width="48" x="4" y="700"><g id="Events" stroke="none" stroke-width="1" fill="none" fill-rule="evenodd"><g id="Assets" transform="translate(-891 -247)"><path id="Rectangle" stroke="#979797" fill="none" d="M720.5 0.5H1439.5V1173.5H720.5z"/><g id="Icon" transform="translate(889 239)"><circle id="Oval" fill-opacity="0" fill="#D8D8D8" cx="26" cy="26" r="26"/><g id="002-cctv" transform="translate(2 8)" fill="#333" fill-rule="nonzero"><path d="M24,25.9999688 C27.308625,25.9999688 30,23.3085938 30,19.9999688 C30,16.6913438 27.308625,13.9999688 24,13.9999688 C20.691375,13.9999688 18,16.6913438 18,19.9999688 C18,23.3085938 20.691375,25.9999688 24,25.9999688 Z M24,16.0000312 C26.2060312,16.0000312 28.0000313,17.7939375 28.0000313,20.0000625 C28.0000313,22.2061875 26.2060312,24 24,24 C21.7939687,24 19.9999688,22.2060938 19.9999688,19.9999687 C19.9999688,17.7938437 21.7939687,16.0000312 24,16.0000312 Z" id="Shape"/><path d="M22.9999688,21 C23.5527188,21 24,20.5527187 24,19.9999687 C24.55275,19.9999687 25.0000312,19.5526875 25.0000312,18.9999375 C25.0000312,18.4471875 24.55275,17.9999062 24,17.9999062 C22.8975,17.9999062 22.0000312,18.897375 22.0000312,19.999875 C22.0000313,20.5527187 22.4473125,21 22.9999688,21 Z" id="Shape"/><path d="M46.9999688,0 L1.00003125,0 C0.44728125,0 0,0.44728125 0,1.00003125 L0,8.0000625 C0,10.2060938 1.79390625,12 4.00003125,12 L4.00003125,16.0000312 C4.00003125,27.0283125 12.9717188,36 24,36 C35.0282812,36 43.9999687,27.0283125 43.9999687,16.0000312 L43.9999687,12 C46.2060938,12 48,10.2060938 48,7.99996875 L48,1.00003125 C48,0.44728125 47.5527187,0 46.9999688,0 Z M42,16.0000313 C42,25.924875 33.9248438,34.0000313 24,34.0000313 C14.0751562,34.0000313 6,25.924875 6,16.0000313 L6,12 L18.061875,12 C15.6114375,13.8244688 13.9999688,16.7174063 13.9999688,19.9999688 C13.9999688,25.5136875 18.486375,30 24,30 C29.513625,30 34.0000313,25.5136875 34.0000313,19.9999688 C34.0000313,16.7174062 32.3885625,13.8244687 29.938125,12 L42,12 L42,16.0000313 Z M24,12 C28.411125,12 31.9999688,15.5888437 31.9999688,19.9999687 C31.9999688,24.4110937 28.411125,27.9999375 24,27.9999375 C19.588875,27.9999375 16.0000312,24.4110937 16.0000312,19.9999687 C16.0000313,15.5888437 19.588875,12 24,12 Z M46.0000312,7.99996875 C46.0000312,9.10246875 45.1025625,9.9999375 44.0000625,9.9999375 L4.00003125,9.9999375 C2.89753125,9.9999375 2.0000625,9.10246875 2.0000625,7.99996875 L2.0000625,1.99996875 L46.0000313,1.99996875 L46.0000312,7.99996875 Z" id="Shape"/><circle id="Oval" cx="37" cy="15" r="1"/></g></g></g></g></svg><svg height="29" viewBox="0 0 48 29" width="48" x="4" y="740"><g id="Events" stroke="none" stroke-width="1" fill="none" fill-rule="evenodd"><g id="Assets" transform="translate(-446 -335)"><g id="Icon" transform="translate(444 323)"><circle id="Oval" fill-opacity="0" fill="#D8D8D8" cx="26" cy="26" r="26"/><g id="007-google-home" transform="translate(2 12)" fill="#333" fill-rule="nonzero"><path d="M24,0.06253125 C11.6630625,0.06253125 0,5.40825 0,11.0625 C0,21.829125 3.92671875,28.0624687 24,28.0624687 C44.0732813,28.0624687 48,21.829125 48,11.0625 C48,5.40825 36.3369375,0.06253125 24,0.06253125 Z M24,2.0625 C36.7617188,2.0625 46.0000313,7.4385 46.0000313,11.0625 C46.0000313,14.4434062 37.1601563,18.0625312 24,18.0625312 C10.8398438,18.0625312 1.99996875,14.4434062 1.99996875,11.0625 C1.99996875,7.4385 11.2382813,2.0625 24,2.0625 Z M24,26.0625 C8.27840625,26.0625 3.40284375,22.2403125 2.2899375,15.1217812 C6.34303125,18.3752813 15.20325,20.0625 24,20.0625 C32.79675,20.0625 41.6569688,18.3752813 45.7100625,15.1217812 C44.5971562,22.2403125 39.7215938,26.0625 24,26.0625 Z" id="Shape"/><circle id="Oval" cx="18" cy="5.063" r="1"/><circle id="Oval" cx="22" cy="5.063" r="1"/><circle id="Oval" cx="26" cy="5.063" r="1"/><circle id="Oval" cx="30" cy="5.063" r="1"/><path d="M22.0000312,23.0625 C22.0000312,23.61525 22.4473125,24.0625312 23.0000625,24.0625312 L25.0000312,24.0625312 C25.5527812,24.0625312 26.0000625,23.61525 26.0000625,23.0625 C26.0000625,22.50975 25.5527812,22.0624688 25.0000312,22.0624688 L23.0000625,22.0624688 C22.4473125,22.0624688 22.0000312,22.50975 22.0000312,23.0625 Z" id="Shape"/></g></g></g></g></svg><svg height="29" viewBox="0 0 48 29" width="48" x="4" y="773"><g id="Events" stroke="none" stroke-width="1" fill="none" fill-rule="evenodd"><g id="Assets" transform="translate(-446 -335)"><g id="Icon" transform="translate(444 323)"><circle id="Oval" fill-opacity="0" fill="#D8D8D8" cx="26" cy="26" r="26"/><g id="007-google-home" transform="translate(2 12)" fill="#333" fill-rule="nonzero"><path d="M24,0.06253125 C11.6630625,0.06253125 0,5.40825 0,11.0625 C0,21.829125 3.92671875,28.0624687 24,28.0624687 C44.0732813,28.0624687 48,21.829125 48,11.0625 C48,5.40825 36.3369375,0.06253125 24,0.06253125 Z M24,2.0625 C36.7617188,2.0625 46.0000313,7.4385 46.0000313,11.0625 C46.0000313,14.4434062 37.1601563,18.0625312 24,18.0625312 C10.8398438,18.0625312 1.99996875,14.4434062 1.99996875,11.0625 C1.99996875,7.4385 11.2382813,2.0625 24,2.0625 Z M24,26.0625 C8.27840625,26.0625 3.40284375,22.2403125 2.2899375,15.1217812 C6.34303125,18.3752813 15.20325,20.0625 24,20.0625 C32.79675,20.0625 41.6569688,18.3752813 45.7100625,15.1217812 C44.5971562,22.2403125 39.7215938,26.0625 24,26.0625 Z" id="Shape"/><circle id="Oval" cx="18" cy="5.063" r="1"/><circle id="Oval" cx="22" cy="5.063" r="1"/><circle id="Oval" cx="26" cy="5.063" r="1"/><circle id="Oval" cx="30" cy="5.063" r="1"/><path d="M22.0000312,23.0625 C22.0000312,23.61525 22.4473125,24.0625312 23.0000625,24.0625312 L25.0000312,24.0625312 C25.5527812,24.0625312 26.0000625,23.61525 26.0000625,23.0625 C26.0000625,22.50975 25.5527812,22.0624688 25.0000312,22.0624688 L23.0000625,22.0624688 C22.4473125,22.0624688 22.0000312,22.50975 22.0000312,23.0625 Z" id="Shape"/></g></g></g></g></svg><svg height="25" viewBox="0 0 48 25" width="48" x="4" y="806"><g id="Events" stroke="none" stroke-width="1" fill="none" fill-rule="evenodd"><g id="Assets" transform="translate(-146 -253)"><g id="Icons-/-Battery" transform="translate(144 239)"><g id="Icon" fill="#D8D8D8" fill-opacity="0"><circle id="Oval" cx="26" cy="26" r="26"/></g><g id="010-battery" transform="translate(2 14)" fill="#333" fill-rule="nonzero"><path d="M42.7368421,0 L10.2051809,0 C7.29975326,0.00328947368 4.94531253,2.35773032 4.94202305,5.26315789 L4.94202305,6.12952305 L3.15789474,6.12952305 C1.41447368,6.13157895 0.00205591579,7.54440789 2.84217094e-14,9.28741779 L2.84217094e-14,14.8178454 C0.00205591579,16.5608553 1.41447368,17.9736842 3.15789474,17.9757401 L4.94202305,17.9757401 L4.94202305,18.8421053 C4.94531253,21.7475328 7.29975326,24.1019737 10.2051809,24.1052632 L42.7368421,24.1052632 C45.6422697,24.1019737 47.9967105,21.7475328 48,18.8421053 L48,5.26315789 C47.9967105,2.35773032 45.6422697,0.00328947368 42.7368421,0 Z M3.15789474,15.8704769 C2.57689147,15.8696546 2.10608547,15.3988486 2.10526316,14.8178454 L2.10526316,9.28741779 C2.10608547,8.70641453 2.57689147,8.23560853 3.15789474,8.23478621 L4.94202305,8.23478621 L4.94202305,15.8704769 L3.15789474,15.8704769 Z M45.8947368,18.8421053 C45.8926809,20.5855263 44.4802632,21.9979441 42.7368421,22 L10.2051809,22 C8.46175989,21.9979441 7.04934211,20.5855263 7.04728621,18.8421053 L7.04728621,5.26315789 C7.04934211,3.51973684 8.46175989,2.10731905 10.2051809,2.10526316 L42.7368421,2.10526316 C44.4802632,2.10731905 45.8926809,3.51973684 45.8947368,5.26315789 L45.8947368,18.8421053 Z" id="Shape"/><path d="M19.6085526,11 L17.7652138,11 L17.7652138,9.15666116 C17.7652138,8.57524674 17.2939967,8.10402958 16.7125822,8.10402958 C16.1311678,8.10402958 15.6599506,8.57524674 15.6599506,9.15666116 L15.6599506,11 L13.8166118,11 C13.2351974,11 12.7639802,11.4712171 12.7639802,12.0526316 C12.7639802,12.6340461 13.2351974,13.1052632 13.8166118,13.1052632 L15.6599506,13.1052632 L15.6599506,14.948602 C15.6599506,15.5300164 16.1311678,16.0012336 16.7125822,16.0012336 C17.2939967,16.0012336 17.7652138,15.5300164 17.7652138,14.948602 L17.7652138,13.1052632 L19.6085526,13.1052632 C20.1899672,13.1052632 20.6611842,12.6340461 20.6611842,12.0526316 C20.6611842,11.4712171 20.1899672,11 19.6085526,11 Z" id="Shape"/><path d="M38.5612664,8.10402958 C37.979852,8.10402958 37.5086348,8.57524674 37.5086348,9.15666116 L37.5086348,14.948602 C37.5086348,15.5300164 37.979852,16.0012336 38.5612664,16.0012336 C39.1426809,16.0012336 39.613898,15.5300164 39.613898,14.948602 L39.613898,9.15666116 C39.613898,8.57524674 39.1426809,8.10402958 38.5612664,8.10402958 Z" id="Shape"/></g></g></g></g></svg><svg height="23" viewBox="0 0 48 23" width="48" x="4" y="835"><g id="Events" stroke="none" stroke-width="1" fill="none" fill-rule="evenodd"><g id="Assets" transform="translate(-146 -339)"><g id="stats" transform="translate(144 323)"><circle id="Oval" fill-opacity="0" fill="#D8D8D8" cx="26" cy="26" r="26"/><g id="line-chart" transform="translate(2 16)" fill="#333" fill-rule="nonzero"><path d="M42.903385,9.47906363e-05 C40.0931404,9.47906363e-05 37.8068637,2.31175404 37.8068637,5.15319815 C37.8068637,6.18954418 38.1120193,7.15460765 38.6347683,7.96345615 L33.1285603,13.5307946 C32.3284994,13.002242 31.3740325,12.6936985 30.3490657,12.6936985 C29.286974,12.6936985 28.2998822,13.0243282 27.4825713,13.5886169 L21.9196447,7.96307699 C22.4422999,7.15422849 22.7472681,6.18925981 22.7472681,5.15310336 C22.7472681,2.31165925 20.4609913,0 17.6507468,0 C14.8405023,0 12.5542255,2.31165925 12.5542255,5.15310336 C12.5542255,6.18925981 12.8592874,7.15394411 13.3817551,7.96279261 L7.87535962,13.5304154 C7.07548618,13.0020524 6.12120679,12.6936985 5.0965213,12.6936985 C2.28627678,12.6936985 0,15.0054525 0,17.8468966 C0,20.6883408 2.28627678,23 5.0965213,23 C7.90676581,23 10.1930426,20.6883408 10.1930426,17.8468966 C10.1930426,16.8105506 9.88788694,15.8454871 9.36513796,15.0365439 L14.871346,9.46920541 C15.6714069,9.997758 16.6258738,10.3063015 17.6508405,10.3063015 C18.6757135,10.3063015 19.6301804,9.997758 20.4301476,9.46920541 L26.0238242,15.1257418 C25.5357626,15.9161062 25.2526382,16.8484669 25.2526382,17.8468018 C25.2526382,20.688246 27.538915,22.9999052 30.3491595,22.9999052 C33.159404,22.9999052 35.4456808,20.688246 35.4456808,17.8468018 C35.4456808,16.8106454 35.1406189,15.8458663 34.6181511,15.0371126 L40.1246404,9.46948978 C40.9246076,9.99785279 41.878887,10.3062067 42.9034787,10.3062067 C45.7137232,10.3062067 48,7.99454748 48,5.15310336 C48,2.31156446 45.7136295,9.47906363e-05 42.903385,9.47906363e-05 Z M5.0965213,20.8699596 C3.44783702,20.8699596 2.10655839,19.51379 2.10655839,17.8468966 C2.10655839,16.1799085 3.44783702,14.8237389 5.0965213,14.8237389 C6.74511183,14.8237389 8.08648421,16.1799085 8.08648421,17.8468966 C8.08648421,19.51379 6.74520558,20.8699596 5.0965213,20.8699596 Z M17.6508405,8.17626113 C16.00225,8.17626113 14.6608776,6.82009149 14.6608776,5.15310336 C14.6608776,3.48621002 16.0021562,2.1299456 17.6508405,2.1299456 C19.2995248,2.1299456 20.6408034,3.48611523 20.6408034,5.15310336 C20.6408034,6.82009149 19.2995248,8.17626113 17.6508405,8.17626113 Z M30.3490657,20.8699596 C28.7004752,20.8699596 27.3591028,19.51379 27.3591028,17.8468018 C27.3591028,16.1798137 28.7003814,14.8236441 30.3490657,14.8236441 C31.9976563,14.8236441 33.3390286,16.1798137 33.3390286,17.8468018 C33.3389349,19.51379 31.9976563,20.8699596 30.3490657,20.8699596 Z M42.903385,8.17626113 C41.2547944,8.17626113 39.913422,6.82009149 39.913422,5.15310336 C39.913422,3.48621002 41.2547007,2.1299456 42.903385,2.1299456 C44.5519755,2.1299456 45.8933479,3.48611523 45.8933479,5.15310336 C45.8933479,6.82009149 44.5519755,8.17626113 42.903385,8.17626113 Z" id="Shape"/><path d="M16.7094973,12.2903744 C16.3222485,11.9032085 15.6945138,11.9032085 15.3072651,12.2903744 L13.2903593,14.3073079 C12.9031989,14.6944737 12.9031989,15.3223054 13.2904476,15.7095595 C13.4840719,15.9031865 13.7377957,16 13.9915196,16 C14.2452434,16 14.4990554,15.9030982 14.6925915,15.7095595 L16.7094973,13.6926259 C17.0968342,13.3054601 17.0968342,12.6775402 16.7094973,12.2903744 Z" id="Shape"/><path d="M35.7096375,6.29036413 C35.3223845,5.90319725 34.694731,5.90319725 34.3073015,6.29045238 L32.2903736,8.30739148 C31.9032088,8.69455836 31.9032088,9.32239177 32.2903736,9.7096469 C32.4840883,9.90318622 32.7378149,10 32.9915415,10 C33.2453564,10 33.4989947,9.90309796 33.6926212,9.70955865 L35.7095492,7.69261955 C36.0968022,7.30536442 36.0968022,6.67753101 35.7096375,6.29036413 Z" id="Shape"/></g></g></g></g></svg><svg height="23" viewBox="0 0 48 23" width="48" x="4" y="862"><g id="Events" stroke="none" stroke-width="1" fill="none" fill-rule="evenodd"><g id="Assets" transform="translate(-146 -339)"><g id="Icon" transform="translate(144 323)"><circle id="Oval" fill-opacity="0" fill="#D8D8D8" cx="26" cy="26" r="26"/><g id="line-chart" transform="translate(2 16)" fill="#333" fill-rule="nonzero"><path d="M42.903385,9.47906363e-05 C40.0931404,9.47906363e-05 37.8068637,2.31175404 37.8068637,5.15319815 C37.8068637,6.18954418 38.1120193,7.15460765 38.6347683,7.96345615 L33.1285603,13.5307946 C32.3284994,13.002242 31.3740325,12.6936985 30.3490657,12.6936985 C29.286974,12.6936985 28.2998822,13.0243282 27.4825713,13.5886169 L21.9196447,7.96307699 C22.4422999,7.15422849 22.7472681,6.18925981 22.7472681,5.15310336 C22.7472681,2.31165925 20.4609913,0 17.6507468,0 C14.8405023,0 12.5542255,2.31165925 12.5542255,5.15310336 C12.5542255,6.18925981 12.8592874,7.15394411 13.3817551,7.96279261 L7.87535962,13.5304154 C7.07548618,13.0020524 6.12120679,12.6936985 5.0965213,12.6936985 C2.28627678,12.6936985 0,15.0054525 0,17.8468966 C0,20.6883408 2.28627678,23 5.0965213,23 C7.90676581,23 10.1930426,20.6883408 10.1930426,17.8468966 C10.1930426,16.8105506 9.88788694,15.8454871 9.36513796,15.0365439 L14.871346,9.46920541 C15.6714069,9.997758 16.6258738,10.3063015 17.6508405,10.3063015 C18.6757135,10.3063015 19.6301804,9.997758 20.4301476,9.46920541 L26.0238242,15.1257418 C25.5357626,15.9161062 25.2526382,16.8484669 25.2526382,17.8468018 C25.2526382,20.688246 27.538915,22.9999052 30.3491595,22.9999052 C33.159404,22.9999052 35.4456808,20.688246 35.4456808,17.8468018 C35.4456808,16.8106454 35.1406189,15.8458663 34.6181511,15.0371126 L40.1246404,9.46948978 C40.9246076,9.99785279 41.878887,10.3062067 42.9034787,10.3062067 C45.7137232,10.3062067 48,7.99454748 48,5.15310336 C48,2.31156446 45.7136295,9.47906363e-05 42.903385,9.47906363e-05 Z M5.0965213,20.8699596 C3.44783702,20.8699596 2.10655839,19.51379 2.10655839,17.8468966 C2.10655839,16.1799085 3.44783702,14.8237389 5.0965213,14.8237389 C6.74511183,14.8237389 8.08648421,16.1799085 8.08648421,17.8468966 C8.08648421,19.51379 6.74520558,20.8699596 5.0965213,20.8699596 Z M17.6508405,8.17626113 C16.00225,8.17626113 14.6608776,6.82009149 14.6608776,5.15310336 C14.6608776,3.48621002 16.0021562,2.1299456 17.6508405,2.1299456 C19.2995248,2.1299456 20.6408034,3.48611523 20.6408034,5.15310336 C20.6408034,6.82009149 19.2995248,8.17626113 17.6508405,8.17626113 Z M30.3490657,20.8699596 C28.7004752,20.8699596 27.3591028,19.51379 27.3591028,17.8468018 C27.3591028,16.1798137 28.7003814,14.8236441 30.3490657,14.8236441 C31.9976563,14.8236441 33.3390286,16.1798137 33.3390286,17.8468018 C33.3389349,19.51379 31.9976563,20.8699596 30.3490657,20.8699596 Z M42.903385,8.17626113 C41.2547944,8.17626113 39.913422,6.82009149 39.913422,5.15310336 C39.913422,3.48621002 41.2547007,2.1299456 42.903385,2.1299456 C44.5519755,2.1299456 45.8933479,3.48611523 45.8933479,5.15310336 C45.8933479,6.82009149 44.5519755,8.17626113 42.903385,8.17626113 Z" id="Shape"/><path d="M16.7094973,12.2903744 C16.3222485,11.9032085 15.6945138,11.9032085 15.3072651,12.2903744 L13.2903593,14.3073079 C12.9031989,14.6944737 12.9031989,15.3223054 13.2904476,15.7095595 C13.4840719,15.9031865 13.7377957,16 13.9915196,16 C14.2452434,16 14.4990554,15.9030982 14.6925915,15.7095595 L16.7094973,13.6926259 C17.0968342,13.3054601 17.0968342,12.6775402 16.7094973,12.2903744 Z" id="Shape"/><path d="M35.7096375,6.29036413 C35.3223845,5.90319725 34.694731,5.90319725 34.3073015,6.29045238 L32.2903736,8.30739148 C31.9032088,8.69455836 31.9032088,9.32239177 32.2903736,9.7096469 C32.4840883,9.90318622 32.7378149,10 32.9915415,10 C33.2453564,10 33.4989947,9.90309796 33.6926212,9.70955865 L35.7095492,7.69261955 C36.0968022,7.30536442 36.0968022,6.67753101 35.7096375,6.29036413 Z" id="Shape"/></g></g></g></g></svg><svg height="16" viewBox="0 0 10 16" width="10" x="4" y="889"><g id="Events" stroke="none" stroke-width="1" fill="none" fill-rule="evenodd"><g id="Assets" transform="translate(-84 -401)" fill="#666" fill-rule="nonzero" stroke="#666"><g id="32213" transform="translate(84.566 401.992)"><path d="M7.69930233,7.6989845 L1.67489922,13.7232016 C1.29167442,14.1066124 0.670341085,14.1066124 0.287302326,13.7232016 C-0.0957674419,13.3401318 -0.0957674419,12.7188295 0.287302326,12.3357907 L5.61796899,7.00527907 L0.287457364,1.67495349 C-0.0956124031,1.29172868 -0.0956124031,0.670488372 0.287457364,0.287418605 C0.670527132,-0.0958062016 1.29182946,-0.0958062016 1.67505426,0.287418605 L7.69945736,6.31172868 C7.89099225,6.50335659 7.98665116,6.75424031 7.98665116,7.00524806 C7.98665116,7.25637984 7.8908062,7.50744961 7.69930233,7.6989845 Z" id="Shape"/></g></g></g></svg><svg height="16" viewBox="0 0 10 16" width="10" x="4" y="909"><g id="Events" stroke="none" stroke-width="1" fill="none" fill-rule="evenodd"><g id="Assets" transform="translate(-829 -400)"><path id="Rectangle" stroke="#979797" fill="#333" d="M720.5 0.5H1439.5V1173.5H720.5z"/><g id="Icons-/-Close-Copy-3" transform="translate(829 401)" fill="#FFF" fill-rule="nonzero" stroke="#FFF"><path d="M8.26567401,7.68043205 L2.24127091,13.6105207 C1.8580461,13.9879408 1.23671277,13.9879408 0.853674007,13.6105207 C0.47060424,13.2334364 0.47060424,12.6218419 0.853674007,12.2447882 L6.18434067,6.99756577 L0.853829046,1.75052653 C0.470759278,1.37328961 0.470759278,0.761756177 0.853829046,0.384671875 C1.23689881,0.0074349564 1.85820114,0.0074349564 2.24142594,0.384671875 L8.26582905,6.31485211 C8.45736393,6.50348583 8.55302284,6.75044949 8.55302284,6.99753525 C8.55302284,7.2447431 8.45717788,7.4918899 8.26567401,7.68043205 Z" id="Shape"/></g></g></g></svg><svg height="16" viewBox="0 0 10 16" width="10" x="4" y="929"><g id="Events" stroke="none" stroke-width="1" fill="none" fill-rule="evenodd"><g id="Assets" transform="translate(-84 -401)" fill="#666" fill-rule="nonzero" stroke="#666"><g id="32213" transform="translate(84.566 401.992)"><path d="M7.69930233,7.6989845 L1.67489922,13.7232016 C1.29167442,14.1066124 0.670341085,14.1066124 0.287302326,13.7232016 C-0.0957674419,13.3401318 -0.0957674419,12.7188295 0.287302326,12.3357907 L5.61796899,7.00527907 L0.287457364,1.67495349 C-0.0956124031,1.29172868 -0.0956124031,0.670488372 0.287457364,0.287418605 C0.670527132,-0.0958062016 1.29182946,-0.0958062016 1.67505426,0.287418605 L7.69945736,6.31172868 C7.89099225,6.50335659 7.98665116,6.75424031 7.98665116,7.00524806 C7.98665116,7.25637984 7.8908062,7.50744961 7.69930233,7.6989845 Z" id="Shape"/></g></g></g></svg><svg height="16" viewBox="0 0 10 16" width="10" x="4" y="949"><g id="Events" stroke="none" stroke-width="1" fill="none" fill-rule="evenodd"><g id="Assets" transform="translate(-829 -400)"><path id="Rectangle" fill="#333" d="M720 -6H1468V1204H720z"/><g id="Icons-/-Close-Copy-3" transform="translate(829 401)" fill="#FFF" fill-rule="nonzero" stroke="#FFF"><path d="M8.26567401,7.68043205 L2.24127091,13.6105207 C1.8580461,13.9879408 1.23671277,13.9879408 0.853674007,13.6105207 C0.47060424,13.2334364 0.47060424,12.6218419 0.853674007,12.2447882 L6.18434067,6.99756577 L0.853829046,1.75052653 C0.470759278,1.37328961 0.470759278,0.761756177 0.853829046,0.384671875 C1.23689881,0.0074349564 1.85820114,0.0074349564 2.24142594,0.384671875 L8.26582905,6.31485211 C8.45736393,6.50348583 8.55302284,6.75044949 8.55302284,6.99753525 C8.55302284,7.2447431 8.45717788,7.4918899 8.26567401,7.68043205 Z" id="Shape"/></g></g></g></svg><svg height="14" viewBox="0 0 14 14" width="14" x="4" y="969"><g id="Events" stroke="none" stroke-width="1" fill="none" fill-rule="evenodd"><g id="Assets" transform="translate(-790 -401)"><path id="Rectangle" fill="#333" d="M720 -6H1468V1204H720z"/><g id="151882" transform="translate(791 402.25)" fill="#FFF" fill-rule="nonzero" stroke="#FFF"><path d="M7.06126618,5.7858349 L11.7801172,1.2353246 C12.0732943,0.952847524 12.0732943,0.494515803 11.7801172,0.212038727 C11.48694,-0.0706795758 11.0121532,-0.0706795758 10.718976,0.212038727 L6.00012508,4.76254903 L1.28102395,0.212038727 C0.987846824,-0.0706795758 0.513059974,-0.0706795758 0.219882846,0.212038727 C-0.073294282,0.494515803 -0.073294282,0.952847524 0.219882846,1.2353246 L4.93898397,5.7858349 L0.219882846,10.3363452 C-0.073294282,10.6188223 -0.073294282,11.077154 0.219882846,11.3596311 C0.36647141,11.500749 0.55858748,11.5714286 0.750453399,11.5714286 C0.942319318,11.5714286 1.13443539,11.500749 1.28102395,11.3593898 L6.00012508,6.80887954 L10.718976,11.3593898 C10.8655646,11.500749 11.0576807,11.5714286 11.2495466,11.5714286 C11.4414125,11.5714286 11.6335286,11.500749 11.7801172,11.3593898 C12.0732943,11.0769128 12.0732943,10.618581 11.7801172,10.336104 L7.06126618,5.7858349 Z" id="Shape"/></g></g></g></svg><svg height="14" viewBox="0 0 14 14" width="14" x="4" y="987"><g id="Events" stroke="none" stroke-width="1" fill="none" fill-rule="evenodd"><g id="Assets" transform="translate(-45 -402)" fill="#666" fill-rule="nonzero" stroke="#666"><g id="151882" transform="translate(46 403)"><path d="M7.06126618,6.00012508 L11.7801172,1.28107736 C12.0732943,0.988138173 12.0732943,0.512831203 11.7801172,0.219892014 C11.48694,-0.0732973379 11.0121532,-0.0732973379 10.718976,0.219892014 L6.00012508,4.93893973 L1.28102395,0.219892014 C0.987846824,-0.0732973379 0.513059974,-0.0732973379 0.219882846,0.219892014 C-0.073294282,0.512831203 -0.073294282,0.988138173 0.219882846,1.28107736 L4.93898397,6.00012508 L0.219882846,10.7191728 C-0.073294282,11.012112 -0.073294282,11.487419 0.219882846,11.7803581 C0.36647141,11.9267027 0.55858748,12 0.750453399,12 C0.942319318,12 1.13443539,11.9267027 1.28102395,11.780108 L6.00012508,7.06106027 L10.718976,11.780108 C10.8655646,11.9267027 11.0576807,12 11.2495466,12 C11.4414125,12 11.6335286,11.9267027 11.7801172,11.780108 C12.0732943,11.4871688 12.0732943,11.0118618 11.7801172,10.7189226 L7.06126618,6.00012508 Z" id="Shape"/></g></g></g></svg></svg>